<svg width="16" height="14" viewBox="0 0 16 14" fill="none" xmlns="http://www.w3.org/2000/svg">
<path fill-rule="evenodd" clip-rule="evenodd" d="M8 2.14317L8.57378 1.52672C10.1583 -0.175572 12.7272 -0.175571 14.3116 1.52672C15.8961 3.229 15.8961 5.98895 14.3116 7.69124L9.14757 13.2393C8.51379 13.9202 7.48621 13.9202 6.85243 13.2393L1.68835 7.69124C0.103883 5.98895 0.103884 3.229 1.68835 1.52671C3.27282 -0.175572 5.84175 -0.175571 7.42621 1.52672L8 2.14317ZM11.75 1.9375C11.4393 1.9375 11.1875 2.18934 11.1875 2.5C11.1875 2.81066 11.4393 3.0625 11.75 3.0625C12.2678 3.0625 12.6875 3.48223 12.6875 4C12.6875 4.31066 12.9393 4.5625 13.25 4.5625C13.5607 4.5625 13.8125 4.31066 13.8125 4C13.8125 2.86091 12.8891 1.9375 11.75 1.9375Z" fill="#F24B50"/>
</svg>
