<?xml version="1.0" encoding="UTF-8"?>
<svg id="Layer_2" data-name="Layer 2" xmlns="http://www.w3.org/2000/svg" viewBox="0 0 1023.72 708">
  <defs>
    <style>
      .cls-1 {
        fill: #384797;
      }
    </style>
  </defs>
  <g id="Layer_1-2" data-name="Layer 1">
    <g>
      <path class="cls-1" d="m995.1,116.56c-19.1-35.59-47.34-63.83-84.67-84.67C873.04,11.05,829.19.6,778.85.6c-55.61,0-106.16,10.45-151.77,31.29-10.34,4.73-20.35,9.9-29.87,15.51,23.62,27.64,48.38,66.93,62.36,119.55,28.57-23.18,63.07-34.77,103.66-34.77,34.72,0,61.38,10.23,80.1,30.64,18.67,20.41,28.02,46.25,28.02,77.49,0,6.09-.93,16.11-2.61,29.98l-31.29,178.48c-.54,3.21-1.2,6.37-1.96,9.41,0,0,0,.11-.05.38-1.2,7.4-22.04,128.2-141.86,248.35,0,0,28.02-77.32,13.55-133.7-9.47,1.25-19.43,1.9-29.87,1.9-34.77,0-61.05-8.92-78.85-26.72-17.79-17.79-26.66-42.77-26.66-74.88,0-15.67.82-27.37,2.56-35.21l31.29-178.48c2.07-11.65,5.22-22.53,9.41-32.76,0,0-.05-.11,0-.11-7.02-70.52-36.24-118.41-62.2-147.79-.38.27-.71.54-1.09.93-17.09-20.13-37.93-36.84-62.58-50.17C452.25,9.96,409.91,0,362.14,0c-10.88,0-21.55.33-32,1.03,0,0-28.02,77.38-13.55,133.7,9.47-1.25,19.43-1.9,29.87-1.9,34.77,0,61.06,8.92,78.85,26.72,17.79,17.79,26.66,42.77,26.66,74.93,0,15.62-.82,27.32-2.56,35.15l-29.71,169.34v.16c-.6,10.94-.71,21.44-.33,31.51-.05,1.8-.05,3.59-.05,5.44,0,44.29,9.96,84.07,29.93,119.22,6.64,11.7,14.26,22.53,22.75,32.54,6.58,7.78,13.71,15.02,21.44,21.71,12.3,10.83,26.01,20.3,41.14,28.46,36.89,19.97,79.23,29.98,127.01,29.98,86.85,0,159.17-22.15,216.9-66.44,57.74-44.29,94.03-105.51,108.78-183.71l32.59-177.12c2.61-15.67,3.86-31.72,3.86-48.21,0-41.68-9.52-80.32-28.62-115.96Z"/>
      <path class="cls-1" d="m36.46,250.09L3.86,427.27c-2.61,15.62-3.86,31.67-3.86,48.16,0,41.74,9.52,80.32,28.62,115.96,19.1,35.59,47.34,63.83,84.67,84.67,37.38,20.84,81.24,31.29,131.58,31.29,55.61,0,106.16-10.45,151.77-31.29,11.37-5.17,22.26-10.88,32.65-17.14-23.07-29.87-45.76-70.96-57.14-124.83-2.4,2.23-4.84,4.41-7.4,6.48-28.68,23.45-63.39,35.21-104.26,35.21-34.72,0-61.44-10.23-80.1-30.64-18.66-20.41-28.02-46.25-28.02-77.49,0-6.09.92-16.11,2.61-29.98l31.29-178.43c.6-3.21,1.2-6.37,1.96-9.47,0,0,0-.11.05-.38,1.2-7.4,22.04-128.2,141.86-248.35-72.75,4.84-134.41,26.61-184.9,65.35-57.73,44.29-94.03,105.57-108.78,183.71Z"/>
    </g>
  </g>
</svg>