<?xml version="1.0" encoding="UTF-8"?>
<svg id="Layer_2" data-name="Layer 2" xmlns="http://www.w3.org/2000/svg" viewBox="0 0 1056.39 730.59">
  <defs>
    <style>
      .cls-1 {
        fill: #f2f2f2;
      }
    </style>
  </defs>
  <g id="Layer_1-2" data-name="Layer 1">
    <g>
      <path class="cls-1" d="m1026.85,120.28c-19.71-36.72-48.85-65.87-87.37-87.37C900.9,11.4,855.64.62,803.7.62c-57.39,0-109.55,10.78-156.61,32.29-10.67,4.89-21,10.22-30.83,16,24.37,28.53,49.92,69.07,64.35,123.37,29.48-23.92,65.08-35.88,106.97-35.88,35.83,0,63.34,10.56,82.66,31.61,19.26,21.06,28.92,47.73,28.92,79.96,0,6.29-.96,16.62-2.7,30.94l-32.29,184.18c-.56,3.31-1.23,6.57-2.02,9.71,0,0,0,.11-.06.39-1.24,7.64-22.74,132.29-146.39,256.28,0,0,28.92-79.79,13.98-137.97-9.77,1.29-20.05,1.97-30.83,1.97-35.88,0-63-9.21-81.36-27.57-18.36-18.36-27.51-44.14-27.51-77.27,0-16.17.84-28.24,2.64-36.33l32.29-184.18c2.13-12.02,5.39-23.25,9.71-33.8,0,0-.06-.11,0-.11-7.24-72.77-37.4-122.19-64.18-152.51-.39.28-.73.56-1.12.95-17.63-20.78-39.14-38.02-64.57-51.77C466.68,10.28,422.99,0,373.69,0c-11.23,0-22.24.34-33.02,1.07,0,0-28.92,79.85-13.98,137.97,9.77-1.29,20.05-1.97,30.83-1.97,35.88,0,63,9.21,81.37,27.57,18.36,18.36,27.51,44.14,27.51,77.32,0,16.12-.84,28.19-2.64,36.27l-30.66,174.75v.17c-.62,11.29-.73,22.12-.34,32.51-.06,1.85-.06,3.71-.06,5.62,0,45.71,10.28,86.75,30.88,123.03,6.85,12.07,14.71,23.25,23.47,33.58,6.79,8.03,14.15,15.5,22.12,22.4,12.69,11.17,26.84,20.94,42.45,29.37,38.07,20.61,81.76,30.94,131.06,30.94,89.62,0,164.24-22.85,223.82-68.56,59.58-45.71,97.03-108.88,112.25-189.57l33.63-182.77c2.7-16.17,3.99-32.74,3.99-49.75,0-43.01-9.83-82.88-29.54-119.66Z"/>
      <path class="cls-1" d="m37.62,258.07L3.99,440.91c-2.7,16.12-3.99,32.68-3.99,49.69,0,43.07,9.83,82.88,29.54,119.66,19.71,36.72,48.85,65.87,87.37,87.37,38.58,21.51,83.83,32.29,135.78,32.29,57.39,0,109.55-10.78,156.61-32.29,11.73-5.33,22.97-11.23,33.69-17.69-23.81-30.83-47.22-73.22-58.96-128.81-2.47,2.3-5,4.55-7.64,6.68-29.59,24.2-65.42,36.33-107.59,36.33-35.83,0-63.4-10.56-82.66-31.61-19.26-21.06-28.92-47.73-28.92-79.96,0-6.29.95-16.62,2.7-30.94l32.29-184.12c.62-3.31,1.24-6.57,2.02-9.77,0,0,0-.11.06-.39,1.24-7.64,22.74-132.29,146.39-256.28-75.07,5-138.7,27.46-190.8,67.44-59.58,45.71-97.03,108.94-112.25,189.57Z"/>
    </g>
  </g>
</svg>