<?xml version="1.0" encoding="UTF-8"?>
<svg id="Layer_2" data-name="Layer 2" xmlns="http://www.w3.org/2000/svg" viewBox="0 0 888.74 188.62">
  <defs>
    <style>
      .cls-1 {
        fill: #f2f2f2;
      }
    </style>
  </defs>
  <g id="Layer_1-2" data-name="Layer 1">
    <g>
      <path class="cls-1" d="m246.89,35.4c-4.74-8.83-11.75-15.84-21.01-21.01-9.28-5.17-20.16-7.76-32.64-7.76-13.8,0-26.34,2.59-37.65,7.76-2.57,1.17-5.05,2.46-7.41,3.85,5.86,6.86,12,16.61,15.47,29.66,7.09-5.75,15.65-8.63,25.72-8.63,8.61,0,15.23,2.54,19.87,7.6,4.63,5.06,6.95,11.48,6.95,19.23,0,1.51-.23,4-.65,7.44l-7.76,44.28c-.13.8-.3,1.58-.49,2.34,0,0,0,.03-.01.09-.3,1.84-5.47,31.81-35.2,61.62,0,0,6.95-19.18,3.36-33.17-2.35.31-4.82.47-7.41.47-8.63,0-15.15-2.21-19.56-6.63-4.41-4.41-6.62-10.61-6.62-18.58,0-3.89.2-6.79.63-8.74l7.76-44.28c.51-2.89,1.3-5.59,2.34-8.13,0,0-.01-.03,0-.03-1.74-17.5-8.99-29.38-15.43-36.67-.09.07-.18.14-.27.23-4.24-5-9.41-9.14-15.53-12.45-9.15-4.95-19.66-7.43-31.51-7.43-2.7,0-5.35.08-7.94.26,0,0-6.95,19.2-3.36,33.17,2.35-.31,4.82-.47,7.41-.47,8.63,0,15.15,2.21,19.56,6.63,4.41,4.41,6.62,10.61,6.62,18.59,0,3.87-.2,6.78-.63,8.72l-7.37,42.01v.04c-.15,2.71-.18,5.32-.08,7.82-.01.45-.01.89-.01,1.35,0,10.99,2.47,20.86,7.43,29.58,1.65,2.9,3.54,5.59,5.64,8.07,1.63,1.93,3.4,3.73,5.32,5.39,3.05,2.69,6.45,5.04,10.21,7.06,9.15,4.95,19.66,7.44,31.51,7.44,21.55,0,39.49-5.49,53.81-16.48,14.32-10.99,23.33-26.18,26.99-45.58l8.09-43.94c.65-3.89.96-7.87.96-11.96,0-10.34-2.36-19.93-7.1-28.77Z"/>
      <path class="cls-1" d="m9.05,68.53L.96,112.49c-.65,3.87-.96,7.86-.96,11.95,0,10.36,2.36,19.93,7.1,28.77,4.74,8.83,11.75,15.84,21.01,21.01,9.27,5.17,20.16,7.76,32.64,7.76,13.8,0,26.34-2.59,37.65-7.76,2.82-1.28,5.52-2.7,8.1-4.25-5.72-7.41-11.35-17.61-14.18-30.97-.59.55-1.2,1.09-1.84,1.61-7.11,5.82-15.73,8.73-25.87,8.73-8.61,0-15.24-2.54-19.87-7.6-4.63-5.06-6.95-11.48-6.95-19.23,0-1.51.23-4,.65-7.44l7.76-44.27c.15-.8.3-1.58.49-2.35,0,0,0-.03.01-.09.3-1.84,5.47-31.81,35.2-61.62-18.05,1.2-33.35,6.6-45.88,16.21-14.32,10.99-23.33,26.19-26.99,45.58Z"/>
    </g>
    <g>
      <path class="cls-1" d="m327.95,61.3c3.52-1.93,8.3-2.9,14.34-2.9,9.64,0,17.89,2.21,24.77,6.6.69.42,1.31.63,1.87.63.68,0,1.37-.42,2.07-1.25l9.7-13c.4-.68.62-1.31.62-1.85,0-.97-.49-1.65-1.45-2.07-10.46-6.48-22.22-9.7-35.3-9.7-11.55,0-21.5,2.21-29.82,6.6-8.31,4.41-13.37,11.43-15.16,21.05-.42,2.07-.62,3.99-.62,5.78,0,8.8,3.5,15.85,10.52,21.16,7.02,5.29,14.87,9.05,23.53,11.24,5.78,1.51,10.12,3.1,13,4.75,2.9,1.65,4.33,4.06,4.33,7.22,0,4.13-1.82,7.4-5.46,9.81-3.65,2.41-8.91,3.61-15.79,3.61-11.01,0-20.71-3.22-29.1-9.7-.56-.54-1.17-.82-1.87-.82s-1.37.42-2.07,1.23l-8.67,12.18c-.54.82-.82,1.43-.82,1.85,0,.69.4,1.39,1.23,2.07,10.59,9.36,23.93,14.03,40.03,14.03,11.7,0,21.85-2.44,30.46-7.32,8.59-4.89,13.79-12.27,15.57-22.19.42-2.07.62-3.98.62-5.77,0-7.85-2.96-14.39-8.87-19.61-5.92-5.23-13.63-9.01-23.12-11.35-6.2-1.51-11.04-3.21-14.56-5.06-3.5-1.85-5.26-4.5-5.26-7.94,0-4.27,1.76-7.36,5.26-9.28Z"/>
      <path class="cls-1" d="m536.28,41.27c-.4-.68-1.17-1.03-2.27-1.03h-18.37c-1.51,0-2.68.76-3.52,2.28l-13.42,33.63c-9.21,23.53-14.93,38.4-17.12,44.58h-.63c0-11.69-.54-25.1-1.65-40.25l-2.88-35.91c-.14-1.91-1.17-2.88-3.1-2.88h-19.18c-1.39,0-2.56.76-3.52,2.27l-15.48,35.5c-4.67,11.01-9.84,24.77-15.48,41.28h-.62c0-5.92-.42-16.16-1.23-30.75l-.62-12.8-1.65-34.05c0-1.93-1.03-2.9-3.1-2.9h-17.95c-.83,0-1.53.28-2.07.83-.56.56-.83,1.17-.83,1.85v.42l10.12,101.34c.14,1.79,1.17,2.68,3.1,2.68h20.22c1.51,0,2.62-.76,3.32-2.28l17.95-40.86c2.88-6.6,7.16-18.23,12.8-34.88h.62c.28,3.32.54,9.22.82,17.75l.63,17.13,2.47,40.25c.14,1.93,1.17,2.9,3.1,2.9h20.23c1.51,0,2.61-.76,3.3-2.28l45.81-101.33c.54-.96.62-1.79.2-2.48Z"/>
      <path class="cls-1" d="m623.57,56.13c-3.04-5.64-7.51-10.12-13.42-13.42-5.92-3.3-12.88-4.95-20.85-4.95-8.8,0-16.82,1.65-24.04,4.95-7.23,3.3-13.22,7.94-17.95,13.92-4.75,6-7.82,12.77-9.19,20.34l-4.95,27.85c-.56,2.62-.83,5.37-.83,8.27,0,7.02,1.59,13.31,4.75,18.87,3.16,5.58,7.66,9.95,13.52,13.11,5.84,3.16,12.55,4.75,20.12,4.75,13.75,0,25.2-3.5,34.36-10.52,9.14-7.02,14.9-16.72,17.22-29.11l5.17-28.07c.42-2.47.62-5.01.62-7.63,0-6.6-1.51-12.72-4.53-18.37Zm-20.02,24.35l-4.97,28.28c-1.09,6.18-3.84,11.07-8.25,14.65-4.41,3.58-10.12,5.37-17.13,5.37-5.51,0-9.67-1.4-12.49-4.23-2.82-2.82-4.23-6.79-4.23-11.87,0-2.48.14-4.33.42-5.57l4.95-28.28c.14-.76.31-1.5.49-2.21.02-.03.03-.08.03-.12,1.68-7.02,6.83-20.88,22.65-36.27,0,0-3.61,9.96-2.79,18.7,1.46-.22,3.01-.32,4.6-.32,5.49,0,9.73,1.62,12.69,4.84,2.95,3.24,4.43,7.32,4.43,12.27,0,.97-.14,2.56-.4,4.75Z"/>
      <path class="cls-1" d="m678.35,41.17c-.48-.63-1.2-.94-2.16-.94h-17.95c-.83,0-1.53.28-2.07.83-.56.56-.89,1.17-1.03,1.85l-18.17,102.58c-1.1,6.74-2.99,11.94-5.67,15.59-2.68,3.64-5.81,5.46-9.39,5.46-1.51,0-3.92-.14-7.22-.42-1.79,0-2.76.83-2.9,2.48l-3.1,15.9c-.26,2.05.55,3.16,2.48,3.3,3.58.54,6.6.82,9.08.82,21.74,0,35.16-13.55,40.25-40.65l18.37-104.43c.14-.97-.03-1.76-.52-2.37Zm3.93-37.78c-2.27-2.27-5.34-3.39-9.19-3.39s-7.4,1.37-10.21,4.12c-2.82,2.76-4.24,6.2-4.24,10.32,0,3.58,1.17,6.54,3.52,8.88,2.33,2.34,5.29,3.5,8.87,3.5,4.13,0,7.6-1.4,10.42-4.23,2.82-2.82,4.24-6.23,4.24-10.21,0-3.72-1.14-6.71-3.41-8.99Z"/>
      <path class="cls-1" d="m777.51,56.13c-3.04-5.64-7.51-10.12-13.42-13.42-5.92-3.3-12.88-4.95-20.85-4.95-8.8,0-16.82,1.65-24.04,4.95-7.23,3.3-13.22,7.94-17.96,13.92-4.75,6-7.8,12.77-9.18,20.34l-4.95,27.85c-.55,2.62-.83,5.37-.83,8.27,0,7.02,1.57,13.31,4.75,18.87,3.16,5.58,7.66,9.95,13.51,13.11,5.86,3.16,12.57,4.75,20.12,4.75,13.75,0,25.21-3.5,34.37-10.52,9.14-7.02,14.9-16.72,17.22-29.11l5.17-28.07c.42-2.47.62-5.01.62-7.63,0-6.6-1.51-12.72-4.53-18.37Zm-20.03,24.35l-4.61,26.31s0,.09-.02.14c-.6,5.29-3.93,19.4-21.5,39.75.15-.51,3.05-10.05,2.04-18.44-1.96.35-4.04.54-6.25.54-5.51,0-9.67-1.4-12.49-4.23-2.82-2.82-4.23-6.79-4.23-11.87,0-2.48.14-4.33.42-5.57l4.95-28.28c1.09-6.04,3.92-10.93,8.47-14.65,4.53-3.72,10.04-5.57,16.5-5.57,5.51,0,9.73,1.62,12.69,4.84,2.96,3.24,4.44,7.32,4.44,12.27,0,.97-.14,2.56-.42,4.75Z"/>
      <path class="cls-1" d="m878.21,47.56c-7.02-6.52-16.65-9.79-28.9-9.79-13.89,0-27.37,2.68-40.45,8.05-1.51.68-2.34,1.71-2.47,3.08l-17.35,95.36c-.14.96,0,1.71.42,2.27s1.09.83,2.07.83h17.95c1.93,0,2.96-.89,3.1-2.68l15.27-82.56c5.92-2.34,12.24-3.5,19-3.5,11.97,0,17.95,5.35,17.95,16.08,0,2.62-.28,5.24-.82,7.85l-10.73,61.71c-.14.96.03,1.71.51,2.27s1.2.83,2.17.83h17.95c1.79,0,2.82-.89,3.1-2.68l10.73-60.28c.68-4.12,1.03-7.56,1.03-10.32,0-11.13-3.52-19.98-10.53-26.52Z"/>
    </g>
  </g>
</svg>