<svg xmlns="http://www.w3.org/2000/svg" id="Layer_1" data-name="Layer 1" viewBox="265.8 585.62 968.48 164.38"><defs><style>.cls-1{fill:#384797;}.cls-2{fill:#2c2c4e;}</style></defs><title>swojon Logo </title><path class="cls-1" d="M480.84,616.52a45.1,45.1,0,0,0-18.3-18.3q-12.12-6.76-28.44-6.77a77.89,77.89,0,0,0-32.8,6.77,71.53,71.53,0,0,0-6.46,3.35,65.21,65.21,0,0,1,13.48,25.84c6.18-5,13.63-7.52,22.41-7.52q11.25,0,17.31,6.62t6.06,16.75a61.3,61.3,0,0,1-.57,6.48l-6.76,38.58c-.12.69-.26,1.38-.42,2a.6.6,0,0,1,0,.08c-.26,1.6-4.77,27.71-30.67,53.68,0,0,6.06-16.72,2.93-28.9a49.27,49.27,0,0,1-6.45.41q-11.28,0-17-5.77t-5.76-16.19a38.58,38.58,0,0,1,.55-7.61l6.77-38.58a34.1,34.1,0,0,1,2-7.08s0,0,0,0c-1.52-15.24-7.83-25.59-13.44-31.94a1.11,1.11,0,0,0-.24.2,46.46,46.46,0,0,0-13.52-10.85q-12-6.46-27.46-6.47c-2.35,0-4.65.07-6.91.23,0,0-6.06,16.72-2.93,28.89a49.42,49.42,0,0,1,6.46-.41q11.27,0,17,5.78T363.45,642a37.7,37.7,0,0,1-.55,7.6l-6.42,36.6v0q-.19,3.54-.07,6.81c0,.39,0,.78,0,1.17A51.28,51.28,0,0,0,362.86,720a46.85,46.85,0,0,0,4.92,7,41.93,41.93,0,0,0,4.64,4.69,47.09,47.09,0,0,0,8.89,6.15q12,6.48,27.45,6.48,28.15,0,46.88-14.36t23.51-39.71L486.2,652a63.81,63.81,0,0,0,.83-10.42A52.18,52.18,0,0,0,480.84,616.52Z"/><path class="cls-1" d="M273.64,645.38l-7,38.29a62.51,62.51,0,0,0-.84,10.41A52.22,52.22,0,0,0,272,719.15a45.28,45.28,0,0,0,18.3,18.3q12.12,6.75,28.44,6.76a78,78,0,0,0,32.8-6.76,68.42,68.42,0,0,0,7.06-3.71,66,66,0,0,1-12.35-27c-.52.48-1.05,1-1.6,1.4q-9.3,7.61-22.54,7.61-11.25,0-17.31-6.62t-6.06-16.75a61.3,61.3,0,0,1,.57-6.48L306,647.36c.13-.7.26-1.38.42-2.05a.32.32,0,0,1,0-.08c.26-1.6,4.76-27.71,30.66-53.68q-23.6,1.56-40,14.12Q278.43,620,273.64,645.38Z"/><path class="cls-1" d="M551.46,639.08q4.59-2.52,12.49-2.53,12.6,0,21.58,5.75a3.25,3.25,0,0,0,1.63.55,2.48,2.48,0,0,0,1.8-1.09l8.45-11.32a3.38,3.38,0,0,0,.53-1.61,1.85,1.85,0,0,0-1.26-1.8,57.13,57.13,0,0,0-30.75-8.45q-15.09,0-26,5.75t-13.21,18.33a25.73,25.73,0,0,0-.53,5,21.93,21.93,0,0,0,9.16,18.43,56.87,56.87,0,0,0,20.5,9.8,48.54,48.54,0,0,1,11.32,4.13,6.84,6.84,0,0,1,3.78,6.29,9.75,9.75,0,0,1-4.76,8.54Q561.44,698,552.46,698a40.29,40.29,0,0,1-25.35-8.45,2.31,2.31,0,0,0-1.63-.71,2.47,2.47,0,0,0-1.8,1.07l-7.55,10.61a3.49,3.49,0,0,0-.71,1.62,2.44,2.44,0,0,0,1.07,1.8q13.85,12.22,34.88,12.22,15.28,0,26.53-6.38a26.64,26.64,0,0,0,13.57-19.33,25.64,25.64,0,0,0,.53-5,21.85,21.85,0,0,0-7.72-17.08q-7.74-6.84-20.14-9.89a57,57,0,0,1-12.68-4.41q-4.58-2.42-4.58-6.92A8.54,8.54,0,0,1,551.46,639.08Z"/><path class="cls-1" d="M733,621.63a2.1,2.1,0,0,0-2-.9H715a3.33,3.33,0,0,0-3.06,2L700.23,652q-12,30.75-14.91,38.84h-.55q0-15.27-1.44-35.06l-2.51-31.29a2.41,2.41,0,0,0-2.7-2.51H661.4a3.62,3.62,0,0,0-3.06,2l-13.49,30.93q-6.11,14.39-13.48,36h-.54q0-7.74-1.08-26.79l-.53-11.15-1.44-29.66q0-2.52-2.7-2.52H609.44a2.43,2.43,0,0,0-1.8.72,2.23,2.23,0,0,0-.72,1.61v.37l8.81,88.28q.18,2.34,2.7,2.34H636a3,3,0,0,0,2.89-2l15.64-35.6q3.76-8.62,11.15-30.38h.53c.25,2.88.47,8,.72,15.46l.55,14.92,2.15,35.07a2.42,2.42,0,0,0,2.7,2.52H690a3,3,0,0,0,2.88-2l39.91-88.27A2,2,0,0,0,733,621.63Z"/><path class="cls-1" d="M809,634.58a28.85,28.85,0,0,0-11.69-11.69,36.62,36.62,0,0,0-18.16-4.31,49.71,49.71,0,0,0-20.94,4.31A41.67,41.67,0,0,0,742.57,635a39.35,39.35,0,0,0-8,17.72L730.25,677a34.88,34.88,0,0,0-.72,7.2,32.65,32.65,0,0,0,4.14,16.44,28.94,28.94,0,0,0,11.78,11.42A36.18,36.18,0,0,0,763,716.2q18,0,29.93-9.16t15-25.36l4.5-24.45a39.18,39.18,0,0,0,.54-6.65A33.27,33.27,0,0,0,809,634.58Zm-17.43,21.21-4.33,24.64a20.38,20.38,0,0,1-7.19,12.76q-5.76,4.66-14.92,4.67-7.2,0-10.88-3.68t-3.69-10.34a23.87,23.87,0,0,1,.37-4.85l4.31-24.64c.12-.66.27-1.3.43-1.92a.35.35,0,0,0,0-.11c1.46-6.11,5.95-18.19,19.73-31.59,0,0-3.14,8.67-2.43,16.29a27.3,27.3,0,0,1,4-.28q7.18,0,11.06,4.22a15.3,15.3,0,0,1,3.85,10.69C791.91,652.5,791.79,653.88,791.57,655.79Z"/><path class="cls-1" d="M856.72,621.55a2.19,2.19,0,0,0-1.88-.82H839.2a2.43,2.43,0,0,0-1.8.72,3.15,3.15,0,0,0-.9,1.61l-15.82,89.37q-1.44,8.8-4.95,13.58t-8.18,4.75q-2,0-6.29-.36a2.2,2.2,0,0,0-2.52,2.16L796,746.41c-.23,1.79.48,2.76,2.16,2.88a54.58,54.58,0,0,0,7.91.71q28.42,0,35.07-35.41l16-91A2.56,2.56,0,0,0,856.72,621.55Zm3.43-32.92a10.85,10.85,0,0,0-8-3,12.24,12.24,0,0,0-8.89,3.58,12.07,12.07,0,0,0-3.7,9A10.45,10.45,0,0,0,850.34,609a12.32,12.32,0,0,0,9.08-3.68,12.13,12.13,0,0,0,3.69-8.9A10.65,10.65,0,0,0,860.15,588.63Z"/><path class="cls-1" d="M943.11,634.58a28.89,28.89,0,0,0-11.68-11.69,36.69,36.69,0,0,0-18.17-4.31,49.71,49.71,0,0,0-20.94,4.31A41.78,41.78,0,0,0,876.67,635a39.33,39.33,0,0,0-8,17.72L864.36,677a34.88,34.88,0,0,0-.72,7.2,32.54,32.54,0,0,0,4.14,16.44,29,29,0,0,0,11.76,11.42,36.29,36.29,0,0,0,17.53,4.14q18,0,29.95-9.16t15-25.36l4.51-24.45a40.25,40.25,0,0,0,.53-6.65A33.27,33.27,0,0,0,943.11,634.58Zm-17.45,21.21-4,22.92a.25.25,0,0,1,0,.12c-.52,4.61-3.42,16.9-18.72,34.63.13-.44,2.66-8.76,1.77-16.07a30.44,30.44,0,0,1-5.44.47q-7.2,0-10.88-3.68t-3.68-10.34A24,24,0,0,1,885,679l4.31-24.64a20.63,20.63,0,0,1,7.38-12.76,21.92,21.92,0,0,1,14.37-4.85q7.2,0,11.06,4.22A15.22,15.22,0,0,1,926,651.65,37.64,37.64,0,0,1,925.66,655.79Z"/><path class="cls-1" d="M1030.84,627.11q-9.18-8.54-25.18-8.53a91.93,91.93,0,0,0-35.24,7,3.24,3.24,0,0,0-2.15,2.69l-15.11,83.07a2.61,2.61,0,0,0,.36,2,2.12,2.12,0,0,0,1.8.72H971q2.52,0,2.7-2.34L987,639.79a44.57,44.57,0,0,1,16.55-3q15.65,0,15.64,14a33.73,33.73,0,0,1-.71,6.84l-9.35,53.76a2.14,2.14,0,0,0,2.33,2.7h15.64a2.47,2.47,0,0,0,2.7-2.34l9.35-52.51a57.44,57.44,0,0,0,.9-9Q1040,635.66,1030.84,627.11Z"/><path class="cls-2" d="M1059.52,701.57a6.67,6.67,0,0,0-4.92-1.84,7.57,7.57,0,0,0-5.72,2.34,8.34,8.34,0,0,0-2.23,6,6.13,6.13,0,0,0,1.84,4.66,6.62,6.62,0,0,0,4.82,1.8,7.65,7.65,0,0,0,5.8-2.34,8.15,8.15,0,0,0,2.25-5.92A6.41,6.41,0,0,0,1059.52,701.57Z"/><path class="cls-2" d="M1111.36,666.23a25.47,25.47,0,0,0-15.3-5,24.75,24.75,0,0,0-15.81,5.17,22.12,22.12,0,0,0-8.16,14L1069.9,693a30,30,0,0,0-.39,4.87q0,8.16,5,12.77t13.52,4.62a34.43,34.43,0,0,0,9.24-1.18,37.62,37.62,0,0,0,8.56-3.68,1.69,1.69,0,0,0,.7-1.2l-.21-.79-3.38-6.46c-.34-.54-.7-.79-1.09-.79a1.78,1.78,0,0,0-.9.29,21.16,21.16,0,0,1-11.73,3.78,8.12,8.12,0,0,1-6-2.14c-1.47-1.42-2.19-3.49-2.19-6.22a18.39,18.39,0,0,1,.29-3.07l2.19-12.52a11.46,11.46,0,0,1,11.93-10,17.47,17.47,0,0,1,9.65,2.88,1.59,1.59,0,0,0,1,.29,1.44,1.44,0,0,0,1-.49l4.47-5.77a1.52,1.52,0,0,0,.4-1A1.16,1.16,0,0,0,1111.36,666.23Z"/><path class="cls-2" d="M1155.6,670.11a15.94,15.94,0,0,0-6.46-6.46,20.18,20.18,0,0,0-10-2.39,27.36,27.36,0,0,0-11.58,2.39,23.07,23.07,0,0,0-8.65,6.7,21.77,21.77,0,0,0-4.42,9.79l-2.39,13.42a19.12,19.12,0,0,0-.41,4,18,18,0,0,0,2.3,9.1,16.19,16.19,0,0,0,6.5,6.31,20,20,0,0,0,9.7,2.28q9.94,0,16.55-5.06a22.17,22.17,0,0,0,8.31-14l2.48-13.53a22.29,22.29,0,0,0,.3-3.68A18.38,18.38,0,0,0,1155.6,670.11ZM1146,681.84l-2.38,13.62a11.26,11.26,0,0,1-4,7,12.72,12.72,0,0,1-8.25,2.59c-2.66,0-4.66-.68-6-2a7.71,7.71,0,0,1-2-5.72,13.43,13.43,0,0,1,.2-2.67l2.39-13.63A11.44,11.44,0,0,1,1130,674a12.15,12.15,0,0,1,8-2.68,7.91,7.91,0,0,1,6.12,2.33,8.45,8.45,0,0,1,2.13,5.92A19.4,19.4,0,0,1,1146,681.84Z"/><path class="cls-2" d="M1229.36,666q-4.87-4.75-13.32-4.76a32.62,32.62,0,0,0-15.6,4.17q-4.68-4.17-12.43-4.17a44.55,44.55,0,0,0-18.09,3.88,1.87,1.87,0,0,0-1.2,1.49l-8.45,45.93a1.41,1.41,0,0,0,.2,1.09,1.16,1.16,0,0,0,1,.4H1170a1.29,1.29,0,0,0,1.49-1.3l7.36-39.77a20.91,20.91,0,0,1,8.16-1.68c5,0,7.55,2.61,7.55,7.85a26.36,26.36,0,0,1-.3,3.68L1189,712.56a1.18,1.18,0,0,0,1.29,1.49h8.54a1.44,1.44,0,0,0,1-.35,1.57,1.57,0,0,0,.5-1l5.17-28.83a27.82,27.82,0,0,0,.5-5,21.22,21.22,0,0,0-.59-5.07,18.89,18.89,0,0,1,9.44-2.58q8,0,8,7.85a26.52,26.52,0,0,1-.31,3.68l-5.16,29.73a1,1,0,0,0,.19,1.09,1.47,1.47,0,0,0,1.1.4h8.45a1.36,1.36,0,0,0,1.49-1.3l5.17-28.83a33,33,0,0,0,.5-5.07Q1234.24,670.8,1229.36,666Z"/></svg>