<?xml version="1.0" encoding="UTF-8"?>
<svg id="Layer_2" data-name="Layer 2" xmlns="http://www.w3.org/2000/svg" viewBox="0 0 774.25 164.32">
  <defs>
    <style>
      .cls-1 {
        fill: #384797;
      }
    </style>
  </defs>
  <g id="Layer_1-2" data-name="Layer 1">
    <g>
      <path class="cls-1" d="m215.08,30.84c-4.13-7.69-10.23-13.8-18.3-18.3-8.08-4.5-17.56-6.76-28.44-6.76-12.02,0-22.95,2.26-32.8,6.76-2.23,1.02-4.4,2.14-6.46,3.35,5.1,5.97,10.46,14.47,13.48,25.84,6.17-5.01,13.63-7.52,22.41-7.52,7.5,0,13.27,2.21,17.31,6.62,4.03,4.41,6.06,10,6.06,16.75,0,1.32-.2,3.48-.56,6.48l-6.76,38.58c-.12.69-.26,1.38-.42,2.03,0,0,0,.02-.01.08-.26,1.6-4.76,27.71-30.66,53.68,0,0,6.06-16.71,2.93-28.9-2.05.27-4.2.41-6.46.41-7.52,0-13.2-1.93-17.04-5.77-3.85-3.85-5.76-9.24-5.76-16.18,0-3.39.18-5.92.55-7.61l6.76-38.58c.45-2.52,1.13-4.87,2.03-7.08,0,0-.01-.02,0-.02-1.52-15.24-7.83-25.59-13.44-31.94-.08.06-.15.12-.24.2-3.69-4.35-8.2-7.96-13.53-10.84-7.97-4.32-17.12-6.47-27.45-6.47-2.35,0-4.66.07-6.92.22,0,0-6.06,16.72-2.93,28.9,2.05-.27,4.2-.41,6.46-.41,7.52,0,13.2,1.93,17.04,5.77s5.76,9.24,5.76,16.2c0,3.38-.18,5.9-.55,7.6l-6.42,36.6v.04c-.13,2.36-.15,4.63-.07,6.81-.01.39-.01.78-.01,1.18,0,9.57,2.15,18.17,6.47,25.77,1.43,2.53,3.08,4.87,4.92,7.03,1.42,1.68,2.96,3.25,4.63,4.69,2.66,2.34,5.62,4.39,8.89,6.15,7.97,4.32,17.12,6.48,27.45,6.48,18.77,0,34.4-4.79,46.88-14.36,12.48-9.57,20.32-22.81,23.51-39.71l7.04-38.28c.56-3.39.84-6.86.84-10.42,0-9.01-2.06-17.36-6.19-25.06Z"/>
      <path class="cls-1" d="m7.88,59.7L.84,98c-.56,3.38-.84,6.85-.84,10.41,0,9.02,2.06,17.36,6.19,25.06,4.13,7.69,10.23,13.8,18.3,18.3,8.08,4.5,17.56,6.76,28.44,6.76,12.02,0,22.95-2.26,32.8-6.76,2.46-1.12,4.81-2.35,7.06-3.7-4.99-6.46-9.89-15.34-12.35-26.98-.52.48-1.05.95-1.6,1.4-6.2,5.07-13.7,7.61-22.53,7.61-7.5,0-13.28-2.21-17.31-6.62-4.03-4.41-6.06-10-6.06-16.75,0-1.32.2-3.48.56-6.48l6.76-38.57c.13-.69.26-1.38.42-2.05,0,0,0-.02.01-.08.26-1.6,4.76-27.71,30.66-53.68-15.72,1.05-29.05,5.75-39.97,14.13-12.48,9.57-20.32,22.82-23.51,39.71Z"/>
    </g>
    <g>
      <path class="cls-1" d="m285.7,53.4c3.06-1.68,7.23-2.53,12.49-2.53,8.4,0,15.58,1.92,21.57,5.75.6.36,1.14.55,1.63.55.59,0,1.2-.36,1.8-1.09l8.45-11.32c.35-.59.54-1.14.54-1.61,0-.85-.43-1.44-1.26-1.8-9.11-5.64-19.36-8.45-30.75-8.45-10.06,0-18.73,1.92-25.98,5.75-7.24,3.84-11.65,9.95-13.21,18.34-.36,1.8-.54,3.48-.54,5.04,0,7.67,3.05,13.81,9.16,18.43,6.11,4.61,12.95,7.89,20.5,9.79,5.04,1.32,8.81,2.7,11.32,4.14,2.53,1.44,3.78,3.53,3.78,6.29,0,3.6-1.59,6.45-4.76,8.54-3.18,2.1-7.76,3.14-13.76,3.14-9.59,0-18.04-2.81-25.35-8.45-.48-.47-1.02-.71-1.63-.71s-1.2.36-1.8,1.07l-7.55,10.61c-.47.71-.71,1.25-.71,1.61,0,.6.35,1.21,1.07,1.8,9.23,8.15,20.85,12.22,34.87,12.22,10.2,0,19.04-2.12,26.53-6.38,7.48-4.26,12.01-10.69,13.57-19.33.36-1.8.54-3.47.54-5.02,0-6.84-2.58-12.53-7.72-17.09-5.16-4.55-11.88-7.85-20.14-9.89-5.4-1.32-9.62-2.79-12.68-4.41-3.05-1.61-4.58-3.92-4.58-6.92,0-3.72,1.53-6.41,4.58-8.09Z"/>
      <path class="cls-1" d="m467.19,35.95c-.35-.59-1.02-.9-1.97-.9h-16c-1.32,0-2.34.66-3.06,1.99l-11.69,29.3c-8.02,20.5-13,33.45-14.91,38.84h-.55c0-10.18-.47-21.87-1.44-35.06l-2.51-31.29c-.12-1.67-1.02-2.51-2.7-2.51h-16.71c-1.21,0-2.23.66-3.06,1.97l-13.49,30.92c-4.07,9.59-8.57,21.57-13.49,35.96h-.54c0-5.16-.36-14.08-1.07-26.79l-.54-11.15-1.44-29.66c0-1.68-.9-2.53-2.7-2.53h-15.64c-.73,0-1.33.24-1.8.73-.48.48-.73,1.02-.73,1.61v.36l8.81,88.29c.12,1.56,1.02,2.34,2.7,2.34h17.61c1.32,0,2.28-.66,2.89-1.99l15.64-35.6c2.51-5.75,6.23-15.88,11.15-30.39h.54c.24,2.89.47,8.03.71,15.46l.55,14.93,2.15,35.06c.12,1.68,1.02,2.53,2.7,2.53h17.63c1.32,0,2.27-.66,2.87-1.99l39.91-88.27c.47-.83.54-1.56.17-2.16Z"/>
      <path class="cls-1" d="m543.24,48.9c-2.65-4.92-6.54-8.81-11.69-11.69-5.16-2.87-11.22-4.31-18.16-4.31-7.67,0-14.66,1.44-20.94,4.31-6.3,2.87-11.51,6.92-15.64,12.13-4.14,5.23-6.81,11.12-8.01,17.72l-4.31,24.26c-.48,2.28-.73,4.67-.73,7.2,0,6.11,1.38,11.59,4.14,16.44,2.75,4.86,6.68,8.66,11.78,11.42,5.09,2.75,10.94,4.14,17.53,4.14,11.98,0,21.95-3.05,29.93-9.16,7.97-6.11,12.98-14.56,15.01-25.36l4.5-24.45c.36-2.15.54-4.37.54-6.65,0-5.75-1.32-11.08-3.95-16Zm-17.44,21.21l-4.33,24.64c-.95,5.39-3.35,9.65-7.19,12.76-3.84,3.12-8.81,4.67-14.93,4.67-4.8,0-8.42-1.22-10.88-3.68-2.46-2.46-3.68-5.91-3.68-10.34,0-2.16.12-3.77.36-4.85l4.31-24.64c.12-.66.27-1.3.43-1.92.01-.03.03-.07.03-.11,1.46-6.11,5.95-18.19,19.73-31.6,0,0-3.14,8.68-2.43,16.3,1.28-.19,2.62-.28,4-.28,4.78,0,8.48,1.41,11.06,4.22,2.57,2.82,3.86,6.38,3.86,10.69,0,.85-.12,2.23-.35,4.14Z"/>
      <path class="cls-1" d="m590.96,35.87c-.42-.55-1.05-.82-1.88-.82h-15.64c-.73,0-1.33.24-1.8.73-.48.48-.78,1.02-.9,1.61l-15.83,89.36c-.95,5.87-2.61,10.4-4.94,13.58-2.34,3.17-5.06,4.76-8.18,4.76-1.32,0-3.41-.12-6.29-.36-1.56,0-2.4.73-2.53,2.16l-2.7,13.85c-.23,1.79.48,2.75,2.16,2.87,3.12.47,5.75.71,7.91.71,18.94,0,30.63-11.81,35.06-35.41l16-90.97c.12-.85-.03-1.53-.46-2.07Zm3.43-32.91c-1.97-1.97-4.65-2.96-8.01-2.96s-6.45,1.2-8.89,3.59c-2.46,2.4-3.69,5.4-3.69,8.99,0,3.12,1.02,5.7,3.06,7.74,2.03,2.04,4.61,3.05,7.72,3.05,3.6,0,6.62-1.22,9.08-3.68,2.46-2.46,3.69-5.43,3.69-8.89,0-3.24-.99-5.84-2.97-7.83Z"/>
      <path class="cls-1" d="m677.35,48.9c-2.65-4.92-6.54-8.81-11.69-11.69-5.16-2.87-11.22-4.31-18.16-4.31-7.67,0-14.66,1.44-20.94,4.31-6.3,2.87-11.51,6.92-15.65,12.13-4.14,5.23-6.8,11.12-7.99,17.72l-4.31,24.26c-.48,2.28-.73,4.67-.73,7.2,0,6.11,1.37,11.59,4.14,16.44,2.75,4.86,6.68,8.66,11.77,11.42,5.1,2.75,10.95,4.14,17.53,4.14,11.98,0,21.96-3.05,29.94-9.16,7.97-6.11,12.98-14.56,15.01-25.36l4.5-24.45c.36-2.15.54-4.37.54-6.65,0-5.75-1.32-11.08-3.95-16Zm-17.45,21.21l-4.02,22.92s0,.08-.01.12c-.52,4.61-3.43,16.9-18.73,34.63.13-.44,2.66-8.76,1.77-16.07-1.71.31-3.52.47-5.44.47-4.8,0-8.42-1.22-10.88-3.68-2.46-2.46-3.68-5.91-3.68-10.34,0-2.16.12-3.77.36-4.85l4.31-24.64c.95-5.27,3.41-9.52,7.38-12.76,3.95-3.24,8.75-4.85,14.37-4.85,4.8,0,8.48,1.41,11.06,4.22,2.58,2.82,3.87,6.38,3.87,10.69,0,.85-.12,2.23-.36,4.14Z"/>
      <path class="cls-1" d="m765.07,41.43c-6.11-5.68-14.51-8.53-25.18-8.53-12.1,0-23.85,2.34-35.24,7.01-1.32.59-2.04,1.49-2.15,2.69l-15.11,83.08c-.12.83,0,1.49.36,1.97.36.48.95.73,1.8.73h15.64c1.68,0,2.58-.78,2.7-2.34l13.3-71.92c5.16-2.04,10.67-3.05,16.55-3.05,10.42,0,15.64,4.66,15.64,14.01,0,2.28-.24,4.57-.71,6.84l-9.35,53.76c-.12.83.03,1.49.44,1.97s1.05.73,1.89.73h15.64c1.56,0,2.46-.78,2.7-2.34l9.35-52.51c.59-3.59.9-6.58.9-8.99,0-9.7-3.06-17.41-9.18-23.11Z"/>
    </g>
  </g>
</svg>