<svg xmlns="http://www.w3.org/2000/svg" viewBox="0 0 1111.69 188.62"><defs><style>.cls-1{fill:#f2f2f2;}.cls-2{fill:#999;}</style></defs><title>dashAsset 4Swojon</title><g id="Layer_2" data-name="Layer 2"><g id="Layer_1-2" data-name="Layer 1"><path class="cls-1" d="M246.89,35.4a52,52,0,0,0-21-21Q212,6.64,193.24,6.63a89.55,89.55,0,0,0-37.66,7.76,83.49,83.49,0,0,0-7.41,3.85A75.11,75.11,0,0,1,163.64,47.9q10.63-8.62,25.72-8.62,12.91,0,19.87,7.6t7,19.22a71.42,71.42,0,0,1-.65,7.44l-7.76,44.28c-.14.8-.3,1.58-.49,2.34a.62.62,0,0,1,0,.09c-.3,1.84-5.47,31.81-35.2,61.62,0,0,6.95-19.18,3.36-33.17a56.65,56.65,0,0,1-7.41.47q-12.94,0-19.56-6.63T141.85,124a43,43,0,0,1,.64-8.74L150.25,71a39.46,39.46,0,0,1,2.34-8.13s0,0,0,0c-1.75-17.49-9-29.37-15.44-36.66a2.38,2.38,0,0,0-.27.22,53.45,53.45,0,0,0-15.52-12.44Q107.62,6.47,89.85,6.48c-2.7,0-5.35.08-7.94.26,0,0-7,19.2-3.36,33.17A56.65,56.65,0,0,1,86,39.44q12.95,0,19.56,6.63t6.62,18.59a43.7,43.7,0,0,1-.64,8.72l-7.37,42v0c-.15,2.72-.17,5.32-.08,7.82,0,.45,0,.89,0,1.35a58.88,58.88,0,0,0,7.42,29.58,52.48,52.48,0,0,0,5.65,8.07,49.14,49.14,0,0,0,5.31,5.39,54.61,54.61,0,0,0,10.21,7.06q13.73,7.44,31.51,7.44,32.33,0,53.82-16.48t27-45.58L253,76.13a72.4,72.4,0,0,0,1-12A59.92,59.92,0,0,0,246.89,35.4Z"/><path class="cls-1" d="M9.05,68.53,1,112.49a72.1,72.1,0,0,0-1,12,59.92,59.92,0,0,0,7.1,28.77,51.93,51.93,0,0,0,21,21Q42,182,60.75,182a89.4,89.4,0,0,0,37.66-7.77,79.61,79.61,0,0,0,8.1-4.25,75.76,75.76,0,0,1-14.18-31c-.59.56-1.2,1.1-1.83,1.61q-10.68,8.73-25.87,8.73-12.93,0-19.88-7.6t-7-19.22a71.42,71.42,0,0,1,.65-7.44L46.21,70.8c.15-.8.3-1.58.49-2.35a.62.62,0,0,1,0-.09c.3-1.84,5.47-31.81,35.2-61.62Q54.84,8.54,36,23,14.55,39.44,9.05,68.53Z"/><path class="cls-1" d="M328,61.3q5.26-2.89,14.34-2.9,14.46,0,24.76,6.6a3.8,3.8,0,0,0,1.87.63A2.87,2.87,0,0,0,371,64.38l9.7-13a3.79,3.79,0,0,0,.61-1.85,2.14,2.14,0,0,0-1.45-2.07,65.68,65.68,0,0,0-35.29-9.7q-17.32,0-29.83,6.6t-15.16,21A29.88,29.88,0,0,0,299,71.2a25.2,25.2,0,0,0,10.51,21.15A65.31,65.31,0,0,0,333,103.59q8.67,2.28,13,4.75a7.86,7.86,0,0,1,4.34,7.22,11.21,11.21,0,0,1-5.46,9.81c-3.66,2.4-8.91,3.61-15.79,3.61a46.32,46.32,0,0,1-29.1-9.7,2.61,2.61,0,0,0-1.87-.82,2.85,2.85,0,0,0-2.06,1.23l-8.67,12.19a4,4,0,0,0-.82,1.85,2.78,2.78,0,0,0,1.24,2.06q15.88,14,40,14,17.55,0,30.45-7.32a30.56,30.56,0,0,0,15.58-22.19,29,29,0,0,0,.62-5.77,25.1,25.1,0,0,0-8.87-19.61q-8.88-7.84-23.12-11.35A65.16,65.16,0,0,1,328,78.52q-5.25-2.77-5.26-7.94Q322.69,64.18,328,61.3Z"/><path class="cls-1" d="M536.28,41.27a2.43,2.43,0,0,0-2.27-1H515.64a3.85,3.85,0,0,0-3.51,2.28L498.71,76.15q-13.8,35.3-17.11,44.58H481q0-17.53-1.65-40.25l-2.88-35.91a2.77,2.77,0,0,0-3.1-2.89H454.15A4.15,4.15,0,0,0,450.63,44l-15.48,35.5q-7,16.51-15.48,41.28h-.62c0-5.93-.42-16.16-1.23-30.75l-.62-12.8-1.65-34.05c0-1.93-1-2.9-3.1-2.9H394.5a2.77,2.77,0,0,0-2.06.83,2.58,2.58,0,0,0-.84,1.86v.41l10.12,101.34c.14,1.79,1.17,2.69,3.1,2.69H425a3.46,3.46,0,0,0,3.32-2.28l17.95-40.87q4.32-9.9,12.8-34.88h.62c.27,3.32.53,9.22.81,17.75l.63,17.13,2.47,40.25a2.78,2.78,0,0,0,3.1,2.9H487a3.44,3.44,0,0,0,3.3-2.28L536.08,43.75A2.38,2.38,0,0,0,536.28,41.27Z"/><path class="cls-1" d="M623.57,56.13a33.31,33.31,0,0,0-13.41-13.42q-8.89-5-20.85-5a57.11,57.11,0,0,0-24,5,47.83,47.83,0,0,0-17.95,13.93A45.26,45.26,0,0,0,538.13,77l-5,27.85a39.34,39.34,0,0,0-.84,8.26A37.58,37.58,0,0,0,537.09,132a33.51,33.51,0,0,0,13.53,13.11,41.62,41.62,0,0,0,20.12,4.74q20.64,0,34.36-10.51t17.22-29.12l5.17-28.06a45.42,45.42,0,0,0,.62-7.63A38.34,38.34,0,0,0,623.57,56.13Zm-20,24.35-5,28.28a23.37,23.37,0,0,1-8.25,14.65q-6.62,5.37-17.13,5.37-8.26,0-12.49-4.23t-4.23-11.87a27.12,27.12,0,0,1,.42-5.57l5-28.28c.14-.76.31-1.5.49-2.21a.21.21,0,0,0,0-.12c1.68-7,6.84-20.88,22.66-36.27,0,0-3.61,10-2.79,18.71a30.89,30.89,0,0,1,4.59-.33c5.49,0,9.73,1.62,12.69,4.85A17.5,17.5,0,0,1,604,75.73,46.53,46.53,0,0,1,603.56,80.48Z"/><path class="cls-1" d="M678.35,41.17a2.55,2.55,0,0,0-2.16-.94h-18a2.78,2.78,0,0,0-2.07.83,3.69,3.69,0,0,0-1,1.86L637,145.49q-1.63,10.11-5.67,15.59t-9.39,5.46q-2.26,0-7.22-.42c-1.79,0-2.76.84-2.9,2.49l-3.1,15.9c-.26,2.05.56,3.16,2.48,3.3a63.91,63.91,0,0,0,9.09.81q32.61,0,40.24-40.65L678.87,43.55A3,3,0,0,0,678.35,41.17Zm3.93-37.78A12.46,12.46,0,0,0,673.09,0a14.05,14.05,0,0,0-10.21,4.12,13.85,13.85,0,0,0-4.24,10.31A12,12,0,0,0,671,26.82a14.16,14.16,0,0,0,10.42-4.23,13.9,13.9,0,0,0,4.25-10.21A12.23,12.23,0,0,0,682.28,3.39Z"/><path class="cls-1" d="M777.51,56.13A33.25,33.25,0,0,0,764.1,42.71q-8.88-5-20.85-5a57.15,57.15,0,0,0-24,5,48.05,48.05,0,0,0-18,13.93A45.33,45.33,0,0,0,692.07,77l-5,27.85a39.35,39.35,0,0,0-.83,8.26A37.37,37.37,0,0,0,691,132a33.5,33.5,0,0,0,13.5,13.11,41.74,41.74,0,0,0,20.13,4.74q20.63,0,34.37-10.51t17.22-29.12l5.17-28.06a45.42,45.42,0,0,0,.62-7.63A38.22,38.22,0,0,0,777.51,56.13Zm-20,24.35-4.61,26.31a.71.71,0,0,1,0,.14c-.6,5.28-3.94,19.39-21.5,39.75.15-.51,3-10.06,2-18.44a35.48,35.48,0,0,1-6.25.54q-8.25,0-12.49-4.23t-4.22-11.87a27.27,27.27,0,0,1,.41-5.57l4.95-28.28a23.76,23.76,0,0,1,8.47-14.65,25.17,25.17,0,0,1,16.5-5.57q8.25,0,12.69,4.85a17.46,17.46,0,0,1,4.44,12.27A42.56,42.56,0,0,1,757.48,80.48Z"/><path class="cls-1" d="M878.21,47.56q-10.53-9.8-28.9-9.8a105.72,105.72,0,0,0-40.45,8.05,3.7,3.7,0,0,0-2.46,3.09l-17.35,95.36a3,3,0,0,0,.41,2.26,2.41,2.41,0,0,0,2.07.84h18c1.93,0,3-.9,3.1-2.69l15.27-82.56a51.14,51.14,0,0,1,19-3.5q18,0,17.95,16.09a38.67,38.67,0,0,1-.81,7.85l-10.74,61.71a2.47,2.47,0,0,0,2.69,3.1h18a2.84,2.84,0,0,0,3.1-2.69L887.71,84.4a65.61,65.61,0,0,0,1-10.32Q888.74,57.39,878.21,47.56Z"/><path class="cls-2" d="M911.13,133a7.63,7.63,0,0,0-5.64-2.11,8.68,8.68,0,0,0-6.57,2.68,9.58,9.58,0,0,0-2.56,6.91,7.05,7.05,0,0,0,2.11,5.35,7.63,7.63,0,0,0,5.54,2.07,8.8,8.8,0,0,0,6.66-2.69,9.34,9.34,0,0,0,2.57-6.8A7.32,7.32,0,0,0,911.13,133Z"/><path class="cls-2" d="M970.64,92.46a29.28,29.28,0,0,0-17.56-5.7,28.4,28.4,0,0,0-18.15,5.93,25.4,25.4,0,0,0-9.36,16.09l-2.52,14.38a34.12,34.12,0,0,0-.45,5.59q0,9.36,5.71,14.66c3.79,3.55,9,5.3,15.51,5.3a39.42,39.42,0,0,0,10.61-1.35,43,43,0,0,0,9.83-4.23,1.93,1.93,0,0,0,.8-1.37l-.23-.91-3.89-7.42c-.39-.61-.8-.91-1.25-.91a2,2,0,0,0-1,.34,24.33,24.33,0,0,1-13.46,4.34,9.33,9.33,0,0,1-6.85-2.46c-1.68-1.63-2.51-4-2.51-7.14a20.81,20.81,0,0,1,.33-3.53l2.52-14.37a13.13,13.13,0,0,1,13.69-11.41,20,20,0,0,1,11.07,3.3,1.84,1.84,0,0,0,1.14.34,1.66,1.66,0,0,0,1.15-.57l5.13-6.62a1.76,1.76,0,0,0,.46-1.14A1.35,1.35,0,0,0,970.64,92.46Z"/><path class="cls-2" d="M1021.42,96.92A18.28,18.28,0,0,0,1014,89.5a23.21,23.21,0,0,0-11.52-2.74,31.5,31.5,0,0,0-13.29,2.74,26.55,26.55,0,0,0-9.93,7.69,25,25,0,0,0-5.07,11.25l-2.75,15.4a21.86,21.86,0,0,0-.46,4.57,20.69,20.69,0,0,0,2.64,10.44,18.45,18.45,0,0,0,7.46,7.24,22.91,22.91,0,0,0,11.13,2.62c7.6,0,13.94-1.92,19-5.81a25.38,25.38,0,0,0,9.53-16.08l2.85-15.53a25.51,25.51,0,0,0,.34-4.23A21,21,0,0,0,1021.42,96.92Zm-11.07,13.46L1007.62,126a12.94,12.94,0,0,1-4.57,8.09,14.52,14.52,0,0,1-9.46,3c-3.06,0-5.36-.79-6.91-2.35a8.86,8.86,0,0,1-2.35-6.57,15.28,15.28,0,0,1,.23-3.06l2.75-15.64a13.13,13.13,0,0,1,4.67-8.11,14,14,0,0,1,9.13-3.07,9.07,9.07,0,0,1,7,2.67,9.7,9.7,0,0,1,2.45,6.8A25.08,25.08,0,0,1,1010.35,110.38Z"/><path class="cls-2" d="M1106.09,92.23q-5.6-5.46-15.29-5.47a37.48,37.48,0,0,0-17.91,4.79q-5.37-4.78-14.26-4.79a51.21,51.21,0,0,0-20.77,4.45,2.16,2.16,0,0,0-1.38,1.71l-9.7,52.73a1.59,1.59,0,0,0,.24,1.24,1.32,1.32,0,0,0,1.14.47h9.8a1.5,1.5,0,0,0,1.72-1.5l8.45-45.64a23.84,23.84,0,0,1,9.36-1.93c5.76,0,8.66,3,8.66,9a28.63,28.63,0,0,1-.34,4.22l-6,34.13a1.45,1.45,0,0,0,.28,1.24,1.48,1.48,0,0,0,1.2.47h9.81a1.7,1.7,0,0,0,1.14-.4,1.83,1.83,0,0,0,.57-1.1l5.94-33.09a32.85,32.85,0,0,0,.57-5.71,24.67,24.67,0,0,0-.68-5.81,20.9,20.9,0,0,1,5.13-2.17,21.14,21.14,0,0,1,5.71-.79c6.07,0,9.13,3,9.13,9a30.38,30.38,0,0,1-.36,4.22l-5.92,34.13a1.18,1.18,0,0,0,.22,1.24,1.69,1.69,0,0,0,1.26.47h9.7a1.57,1.57,0,0,0,1.71-1.5l5.94-33.09a37.38,37.38,0,0,0,.57-5.81Q1111.69,97.71,1106.09,92.23Z"/></g></g></svg>