<svg width="500" height="375" viewBox="0 0 500 375" fill="none" xmlns="http://www.w3.org/2000/svg">
<rect width="500" height="375" rx="60" fill="white"/>
<path d="M219.466 103.542C219.466 103.542 223.2 68.8084 238.891 81.6667C254.583 94.525 234.408 120 234.408 120" fill="#72A7FF"/>
<path d="M219.466 103.542C219.466 103.542 223.2 68.8084 238.891 81.6667C254.583 94.525 234.408 120 234.408 120" stroke="black" stroke-width="6" stroke-linecap="round" stroke-linejoin="round"/>
<path d="M99.0332 207.683C99.0332 263.267 144.092 293.692 199.683 293.692C255.275 293.692 300.325 263.267 300.325 207.683C300.325 152.1 255.267 97.0083 199.683 97.0083C144.1 97.0083 99.0332 152.092 99.0332 207.683Z" fill="#72A7FF" stroke="black" stroke-width="6" stroke-linecap="round" stroke-linejoin="round"/>
<path d="M227.499 191.075C235.183 202.142 223.216 206.117 211.766 199.458C200.033 205.758 183.533 203.967 193.341 191.042" stroke="black" stroke-width="6" stroke-linecap="round" stroke-linejoin="round"/>
<ellipse cx="237.716" cy="178.442" rx="7.15" ry="11.3417" fill="black"/>
<ellipse cx="184.075" cy="178.442" rx="7.15" ry="11.3417" fill="black"/>
<ellipse cx="264.733" cy="147.09" rx="8.48333" ry="12.7833" transform="rotate(-38.01 264.733 147.09)" fill="#9BC3FF"/>
<path d="M171.717 103.542C171.717 103.542 167.975 68.8084 152.292 81.6667C136.608 94.525 156.775 120 156.775 120" fill="#72A7FF"/>
<path d="M171.717 103.542C171.717 103.542 167.975 68.8084 152.292 81.6667C136.608 94.525 156.775 120 156.775 120" stroke="black" stroke-width="6" stroke-linecap="round" stroke-linejoin="round"/>
<rect x="283.158" y="283.408" width="95.0083" height="10.2833" fill="white" stroke="black" stroke-width="6" stroke-linecap="round" stroke-linejoin="round"/>
<path d="M429.875 293.692H311.8L326.458 225.267H444.533L429.875 293.692V293.692Z" fill="white" stroke="black" stroke-width="6" stroke-linecap="round" stroke-linejoin="round"/>
<path d="M383.583 248.608C381.597 248.64 379.634 249.047 377.8 249.808C381.358 251.817 382.75 256.167 380.908 261.217C379.066 266.267 374.491 270.617 369.466 272.633C370.969 273.447 372.657 273.858 374.366 273.825C381.333 273.825 389.041 268.183 391.583 261.217C394.125 254.25 390.541 248.608 383.583 248.608Z" fill="white" stroke="black" stroke-width="6" stroke-linecap="round" stroke-linejoin="round"/>
<path d="M227.5 259.858V286.717C227.5 291.94 231.734 296.175 236.958 296.175H251.541V247.225C251.541 237.379 243.562 229.396 233.716 229.392V229.392C224.303 229.391 216.017 235.599 213.375 244.633" fill="#72A7FF"/>
<path d="M227.5 259.858V286.717C227.5 291.94 231.734 296.175 236.958 296.175H251.541V247.225C251.541 237.379 243.562 229.396 233.716 229.392V229.392C224.303 229.391 216.017 235.599 213.375 244.633" stroke="black" stroke-width="6" stroke-linecap="round" stroke-linejoin="round"/>
<path d="M227.5 270.783V286.717C227.5 291.94 231.734 296.175 236.958 296.175H258.25C265.264 296.175 270.95 290.489 270.95 283.475V283.475C270.945 276.464 265.26 270.783 258.25 270.783H251.541" fill="#72A7FF"/>
<path d="M227.5 270.783V286.717C227.5 291.94 231.734 296.175 236.958 296.175H258.25C265.264 296.175 270.95 290.489 270.95 283.475V283.475C270.945 276.464 265.26 270.783 258.25 270.783H251.541" stroke="black" stroke-width="6" stroke-linecap="round" stroke-linejoin="round"/>
<path d="M204.283 259.858V286.717C204.281 289.224 205.276 291.63 207.048 293.404C208.821 295.178 211.225 296.175 213.733 296.175H228.333V247.225C228.333 237.376 220.349 229.392 210.5 229.392V229.392C201.087 229.391 192.801 235.599 190.158 244.633" fill="#72A7FF"/>
<path d="M204.283 259.858V286.717C204.281 289.224 205.276 291.63 207.048 293.404C208.821 295.178 211.225 296.175 213.733 296.175H228.333V247.225C228.333 237.376 220.349 229.392 210.5 229.392V229.392C201.087 229.391 192.801 235.599 190.158 244.633" stroke="black" stroke-width="6" stroke-linecap="round" stroke-linejoin="round"/>
<path d="M204.283 270.783V286.717C204.281 289.224 205.276 291.63 207.048 293.404C208.821 295.178 211.225 296.175 213.733 296.175H235C242.014 296.175 247.7 290.489 247.7 283.475V283.475C247.7 280.107 246.362 276.878 243.98 274.498C241.598 272.117 238.367 270.781 235 270.783H228.333" fill="#72A7FF"/>
<path d="M204.283 270.783V286.717C204.281 289.224 205.276 291.63 207.048 293.404C208.821 295.178 211.225 296.175 213.733 296.175H235C242.014 296.175 247.7 290.489 247.7 283.475V283.475C247.7 280.107 246.362 276.878 243.98 274.498C241.598 272.117 238.367 270.781 235 270.783H228.333" stroke="black" stroke-width="6" stroke-linecap="round" stroke-linejoin="round"/>
<circle cx="71.5163" cy="150.492" r="16.0417" fill="black"/>
<circle cx="327.841" cy="150.492" r="16.0417" fill="black"/>
<circle cx="380.933" cy="150.492" r="16.0417" fill="black"/>
</svg>
