<svg width="500" height="375" viewBox="0 0 500 375" fill="none" xmlns="http://www.w3.org/2000/svg">
<rect width="500" height="375" rx="60" fill="white"/>
<path d="M318.383 243.117C318.383 243.117 342.783 226.95 376.483 233.417L370.958 243.767C370.958 243.767 395.333 241.217 409.991 262.1L401.833 268.642C416.633 275.508 422.266 283.492 430.708 297.417C417.233 303.25 406.1 303.433 390.233 300.75L394.4 310.392C380.758 315.675 360.375 311.283 351.766 301.225L350.733 314.292C333.425 306.725 320.491 288.808 310.358 268.667L318.383 243.117Z" fill="white" stroke="black" stroke-width="6" stroke-linecap="round" stroke-linejoin="round"/>
<path d="M315 253.833C315 253.833 343.333 246.175 368.975 259.666L362.025 264.666C370.358 268.508 374.567 272.091 379.308 279.85C371.808 283.066 365.542 283.183 356.65 281.675L357.917 291.308C348.033 289.375 319.75 274.308 313.292 259.291L315 253.833Z" fill="#FCD97B" stroke="black" stroke-width="6" stroke-linecap="round" stroke-linejoin="round"/>
<rect x="129.16" y="126.089" width="234.275" height="132.4" rx="16.89" transform="rotate(18.31 129.16 126.089)" fill="white" stroke="black" stroke-width="6" stroke-linecap="round" stroke-linejoin="round"/>
<rect x="121.32" y="149.779" width="234.275" height="35.45" transform="rotate(18.31 121.32 149.779)" fill="black" stroke="black" stroke-width="6" stroke-linecap="round" stroke-linejoin="round"/>
<path d="M127.508 214.783L174.333 230.283" stroke="black" stroke-width="6" stroke-linecap="round" stroke-linejoin="round"/>
<path d="M122.733 229.208L169.558 244.708" stroke="black" stroke-width="6" stroke-linecap="round" stroke-linejoin="round"/>
<rect x="279.708" y="263.692" width="26.8" height="26.8" transform="rotate(18.31 279.708 263.692)" stroke="black" stroke-width="6" stroke-linecap="round" stroke-linejoin="round"/>
<path d="M245.918 170.562V170.562C249.599 169.867 253.147 172.287 253.843 175.968L258.261 199.355C258.808 202.249 256.905 205.038 254.011 205.585L250.359 206.275C247.923 206.722 245.583 205.119 245.118 202.686L240.545 178.481C239.849 174.8 242.269 171.252 245.951 170.556L245.918 170.562Z" fill="#72A7FF" stroke="black" stroke-width="6" stroke-linecap="round" stroke-linejoin="round"/>
<path d="M243.1 171.825L269.992 161.825C273.506 160.523 277.41 162.313 278.717 165.825V165.825C280.018 169.337 278.228 173.239 274.717 174.542L255.2 181.792" fill="#72A7FF"/>
<path d="M243.1 171.825L269.992 161.825C273.506 160.523 277.41 162.313 278.717 165.825V165.825C280.018 169.337 278.228 173.239 274.717 174.542L255.2 181.792" stroke="black" stroke-width="6" stroke-linecap="round" stroke-linejoin="round"/>
<path d="M257.142 203.567L248.967 212.367C246.271 215.266 241.736 215.434 238.833 212.742V212.742C235.942 210.044 235.778 205.516 238.467 202.617L243.933 196.625" fill="#72A7FF"/>
<path d="M257.142 203.567L248.967 212.367C246.271 215.266 241.736 215.434 238.833 212.742V212.742C235.942 210.044 235.778 205.516 238.467 202.617L243.933 196.625" stroke="black" stroke-width="6" stroke-linecap="round" stroke-linejoin="round"/>
<path d="M265.517 182.781V182.781C268.699 180.804 272.882 181.78 274.859 184.962L287.418 205.169C288.972 207.671 288.205 210.96 285.703 212.514L282.546 214.476C281.531 215.107 280.306 215.309 279.142 215.037C277.977 214.765 276.969 214.042 276.338 213.027L263.344 192.119C261.368 188.94 262.341 184.761 265.517 182.781Z" fill="#72A7FF" stroke="black" stroke-width="6" stroke-linecap="round" stroke-linejoin="round"/>
<path d="M265.133 183.067L292.025 173.067C293.711 172.439 295.578 172.506 297.214 173.255C298.851 174.004 300.123 175.372 300.75 177.058V177.058C301.391 178.752 301.329 180.631 300.578 182.279C299.827 183.927 298.449 185.206 296.75 185.833L277.233 193.075" fill="#72A7FF"/>
<path d="M265.133 183.067L292.025 173.067C293.711 172.439 295.578 172.506 297.214 173.255C298.851 174.004 300.123 175.372 300.75 177.058V177.058C301.391 178.752 301.329 180.631 300.578 182.279C299.827 183.927 298.449 185.206 296.75 185.833L277.233 193.075" stroke="black" stroke-width="6" stroke-linecap="round" stroke-linejoin="round"/>
<path d="M287.875 209.55L283.417 220.708C281.95 224.382 277.783 226.172 274.108 224.708V224.708C270.434 223.241 268.644 219.075 270.108 215.4L273.05 207.842" fill="#72A7FF"/>
<path d="M287.875 209.55L283.417 220.708C281.95 224.382 277.783 226.172 274.108 224.708V224.708C270.434 223.241 268.644 219.075 270.108 215.4L273.05 207.842" stroke="black" stroke-width="6" stroke-linecap="round" stroke-linejoin="round"/>
<path d="M248.583 108.667C248.583 108.667 254.042 83.2917 241.792 88.475C224.175 95.975 234.058 129.592 234.058 129.592" fill="#72A7FF"/>
<path d="M248.583 108.667C248.583 108.667 254.042 83.2917 241.792 88.475C224.175 95.975 234.058 129.592 234.058 129.592" stroke="black" stroke-width="6" stroke-linecap="round" stroke-linejoin="round"/>
<path d="M290.242 83.5583C290.242 83.5583 279.167 73.1583 272.1 72.2C265.033 71.2416 259.683 89.525 259.683 89.525" fill="#72A7FF"/>
<path d="M290.242 83.5583C290.242 83.5583 279.167 73.1583 272.1 72.2C265.033 71.2416 259.683 89.525 259.683 89.525" stroke="black" stroke-width="6" stroke-linecap="round" stroke-linejoin="round"/>
<path d="M343.858 156.367C333.617 186.017 304.608 193.1 274.967 182.85C245.325 172.6 226.258 148.908 236.5 119.258C243.129 100.081 259.485 85.8961 279.408 82.0479C299.331 78.1997 319.793 85.2725 333.087 100.602C346.381 115.932 350.487 137.189 343.858 156.367Z" fill="#72A7FF" stroke="black" stroke-width="6" stroke-linecap="round" stroke-linejoin="round"/>
<path d="M291.667 127.75C288.025 135.492 282.333 140.467 278.967 138.883C275.6 137.3 275.808 129.717 279.45 122" stroke="black" stroke-width="6" stroke-linecap="round" stroke-linejoin="round"/>
<path d="M278.792 118.933C279.925 120.8 283.192 122.208 287.192 122.058C289.133 124.958 292.042 127.267 294.467 128" stroke="black" stroke-width="6" stroke-linecap="round" stroke-linejoin="round"/>
<ellipse cx="277.016" cy="109.603" rx="6.4" ry="4.03333" transform="rotate(-61.99 277.016 109.603)" fill="black"/>
<ellipse cx="303.74" cy="123.826" rx="6.4" ry="4.03333" transform="rotate(-61.99 303.74 123.826)" fill="black"/>
<ellipse cx="290.194" cy="91.273" rx="7.21667" ry="4.79167" transform="rotate(-0.7 290.194 91.273)" fill="#9BC3FF"/>
<path d="M334.542 107.7C334.542 107.7 346.75 110.4 351.5 115.733C356.25 121.067 341.725 139.408 341.725 139.408" fill="#72A7FF"/>
<path d="M334.542 107.7C334.542 107.7 346.75 110.4 351.5 115.733C356.25 121.067 341.725 139.408 341.725 139.408" stroke="black" stroke-width="6" stroke-linecap="round" stroke-linejoin="round"/>
<path d="M317.042 165.192C317.042 165.192 325.658 192.317 334.408 182.292C343.158 172.267 330.242 151.283 330.242 151.283" fill="#72A7FF"/>
<path d="M317.042 165.192C317.042 165.192 325.658 192.317 334.408 182.292C343.158 172.267 330.242 151.283 330.242 151.283" stroke="black" stroke-width="6" stroke-linecap="round" stroke-linejoin="round"/>
<path d="M156 80.8332C149.058 70.8332 145.083 63.2082 139.575 58.1166C133.525 52.5416 119.442 74.9916 143.925 102.233" fill="#3592A2"/>
<path d="M156 80.8332C149.058 70.8332 145.083 63.2082 139.575 58.1166C133.525 52.5416 119.442 74.9916 143.925 102.233" stroke="black" stroke-width="6" stroke-linecap="round" stroke-linejoin="round"/>
<path d="M175.275 55.7499C175.275 55.7499 158.333 50.5083 153.792 60.1666C151.667 64.6749 163.683 70.8333 163.683 70.8333" fill="#3592A2"/>
<path d="M175.275 55.7499C175.275 55.7499 158.333 50.5083 153.792 60.1666C151.667 64.6749 163.683 70.8333 163.683 70.8333" stroke="black" stroke-width="6" stroke-linecap="round" stroke-linejoin="round"/>
<path d="M208.482 150.48V150.48C211.192 153.067 211.291 157.361 208.703 160.071L186.753 183.057C184.719 185.187 181.343 185.265 179.212 183.23L176.525 180.663C174.724 178.944 174.658 176.09 176.378 174.289L198.898 150.707C201.485 147.997 205.779 147.898 208.489 150.486L208.482 150.48Z" fill="#3592A2" stroke="black" stroke-width="6" stroke-linecap="round" stroke-linejoin="round"/>
<path d="M198.992 150.591L212.484 136.425C215.072 133.718 219.363 133.617 222.075 136.2V136.2C223.376 137.443 224.13 139.152 224.17 140.951C224.211 142.749 223.535 144.491 222.292 145.791L208.8 159.958" fill="#3592A2"/>
<path d="M198.992 150.591L212.484 136.425C215.072 133.718 219.363 133.617 222.075 136.2V136.2C223.376 137.443 224.13 139.152 224.17 140.951C224.211 142.749 223.535 144.491 222.292 145.791L208.8 159.958" stroke="black" stroke-width="6" stroke-linecap="round" stroke-linejoin="round"/>
<path d="M192.967 176.541L186.75 183.05C184.719 185.149 181.377 185.227 179.25 183.225L170.559 174.891C167.7 172.156 167.596 167.622 170.325 164.758V164.758C173.061 161.9 177.594 161.795 180.459 164.525L183.192 167.141" fill="#3592A2"/>
<path d="M192.967 176.541L186.75 183.05C184.719 185.149 181.377 185.227 179.25 183.225L170.559 174.891C167.7 172.156 167.596 167.622 170.325 164.758V164.758C173.061 161.9 177.594 161.795 180.459 164.525L183.192 167.141" stroke="black" stroke-width="6" stroke-linecap="round" stroke-linejoin="round"/>
<path d="M252.892 121.225C245.65 151.75 215.667 164.817 185.15 157.575C154.633 150.333 135.15 125.517 142.375 94.9999C147.06 75.258 161.921 59.515 181.36 53.7011C200.799 47.8871 221.864 52.8856 236.618 66.8136C251.373 80.7415 257.576 101.483 252.892 121.225Z" fill="#3592A2" stroke="black" stroke-width="6" stroke-linecap="round" stroke-linejoin="round"/>
<path d="M171.433 88.1667C166.742 91.1001 170.425 95.1417 177.392 94.4084C182.467 103.017 190.358 103.875 189.533 95.9751" stroke="black" stroke-width="6" stroke-linecap="round" stroke-linejoin="round"/>
<path d="M172.017 93.8917C172.017 93.8917 168.217 104.025 173.383 106.592C178.55 109.158 183.167 100.5 183.167 100.5" stroke="black" stroke-width="6" stroke-linecap="round" stroke-linejoin="round"/>
<path d="M205.317 91.2917H194.375L200.675 98.2917" stroke="black" stroke-width="6" stroke-linecap="round" stroke-linejoin="round"/>
<path d="M169.858 74.95L173.783 81.5166L166.208 80.4833" stroke="black" stroke-width="6" stroke-linecap="round" stroke-linejoin="round"/>
<path d="M253.225 95.9332C264.475 108.633 252.517 126.975 240.425 103.808Z" fill="#3592A2"/>
<path d="M253.225 95.9332C264.475 108.633 252.517 126.975 240.425 103.808" stroke="black" stroke-width="6" stroke-linecap="round" stroke-linejoin="round"/>
<ellipse cx="192.698" cy="60.6213" rx="7.21667" ry="4.79167" transform="rotate(-9.87 192.698 60.6213)" fill="#4B9EAC"/>
<path d="M212.808 125.158C212.808 125.158 203.333 116.55 193.733 114.833C185.633 113.383 184.875 135.717 207.175 144.417" fill="#3592A2"/>
<path d="M212.808 125.158C212.808 125.158 203.333 116.55 193.733 114.833C185.633 113.383 184.875 135.717 207.175 144.417" stroke="black" stroke-width="6" stroke-linecap="round" stroke-linejoin="round"/>
<path d="M48.9831 179.808L41.8164 146.567L73.7747 135.2L87.6747 166.05L48.9831 179.808Z" fill="#FCD97B" stroke="black" stroke-width="6" stroke-linecap="round" stroke-linejoin="round"/>
<path d="M93.2666 158.583L87.6749 166.05L73.7749 135.2L93.2666 158.583Z" fill="#FCD97B" stroke="black" stroke-width="6" stroke-linecap="round" stroke-linejoin="round"/>
<path d="M45.8914 145.117C45.8914 145.117 43.4914 124.683 51.5247 121.825C59.5581 118.967 69.5664 136.667 69.5664 136.667" stroke="black" stroke-width="6" stroke-linecap="round" stroke-linejoin="round"/>
<path d="M443.333 197.383C441.282 199.063 440.422 201.799 441.141 204.35L434.683 209.617C434.037 210.143 433.208 210.391 432.38 210.305C431.551 210.219 430.79 209.806 430.266 209.158L391.5 161.558C390.408 160.212 390.613 158.235 391.958 157.142L398.358 151.925C400.726 153.187 403.621 152.907 405.702 151.213C407.783 149.519 408.646 146.742 407.891 144.167L414.3 138.95C415.644 137.856 417.62 138.058 418.716 139.4L457.5 186.975C458.027 187.618 458.276 188.445 458.191 189.273C458.107 190.1 457.696 190.86 457.05 191.383L450.558 196.667C448.22 195.458 445.389 195.739 443.333 197.383Z" fill="#FCD97B" stroke="black" stroke-width="6" stroke-linecap="round" stroke-linejoin="round"/>
<path d="M440.991 166.725L437.108 169.883" stroke="black" stroke-width="6" stroke-linecap="round" stroke-linejoin="round"/>
<path d="M430.608 175.175L420.858 183.108" stroke="black" stroke-width="6" stroke-linecap="round" stroke-linejoin="round" stroke-dasharray="10.06"/>
<path d="M417.616 185.758L413.733 188.917" stroke="black" stroke-width="6" stroke-linecap="round" stroke-linejoin="round"/>
<path d="M435.583 194.792C434.036 196.942 433.908 199.804 435.258 202.083L430.366 208.833C429.348 210.235 427.387 210.549 425.983 209.533L376.283 173.492C374.881 172.474 374.568 170.512 375.583 169.108L380.433 162.442C383.067 163.089 385.831 162.077 387.423 159.881C389.015 157.685 389.118 154.743 387.683 152.442L392.533 145.775C393.551 144.373 395.512 144.059 396.916 145.075L446.616 181.117C448.016 182.137 448.325 184.098 447.308 185.5L442.416 192.242C439.834 191.66 437.153 192.66 435.583 194.792Z" fill="#72A7FF" stroke="black" stroke-width="6" stroke-linecap="round" stroke-linejoin="round"/>
<path d="M425.475 165.75L422.541 169.8" stroke="black" stroke-width="6" stroke-linecap="round" stroke-linejoin="round"/>
<path d="M417.616 176.583L410.233 186.758" stroke="black" stroke-width="6" stroke-linecap="round" stroke-linejoin="round" stroke-dasharray="10.06"/>
<path d="M407.775 190.158L404.841 194.2" stroke="black" stroke-width="6" stroke-linecap="round" stroke-linejoin="round"/>
<rect x="179.695" y="267.44" width="67.8333" height="56.7083" transform="rotate(-7.22 179.695 267.44)" fill="#FF79AB" stroke="black" stroke-width="6" stroke-linecap="round" stroke-linejoin="round"/>
<path d="M233.333 251.875C230.333 255.741 217.975 265.208 214.108 262.2C210.241 259.191 216.316 244.883 219.316 241.016C221.193 238.347 224.385 236.924 227.625 237.312C230.866 237.701 233.631 239.838 234.823 242.875C236.016 245.913 235.443 249.361 233.333 251.85V251.875Z" fill="#FF79AB" stroke="black" stroke-width="6" stroke-linecap="round" stroke-linejoin="round"/>
<path d="M191.191 257.208C195.066 260.208 209.391 266.291 212.383 262.425C215.375 258.558 205.925 246.2 202.058 243.2C199.573 241.059 196.11 240.465 193.054 241.655C189.998 242.845 187.848 245.625 187.465 248.882C187.082 252.139 188.528 255.342 191.225 257.208H191.191Z" fill="#FF79AB" stroke="black" stroke-width="6" stroke-linecap="round" stroke-linejoin="round"/>
<path d="M181.983 285.4L249.275 276.875Z" fill="#FF79AB"/>
<path d="M181.983 285.4L249.275 276.875" stroke="black" stroke-width="6" stroke-linecap="round" stroke-linejoin="round"/>
</svg>
