<svg width="500" height="375" viewBox="0 0 500 375" fill="none" xmlns="http://www.w3.org/2000/svg">
<rect width="500" height="375" fill="white"/>
<path d="M285.556 196.975C278.206 205.633 258.098 220.125 261.69 231.567C265.281 243.008 294.865 225.417 306.69 209.783" fill="#72A7FF"/>
<path d="M285.556 196.975C278.206 205.633 258.098 220.125 261.69 231.567C265.281 243.008 294.865 225.417 306.69 209.783" stroke="black" stroke-width="6" stroke-linecap="round" stroke-linejoin="round"/>
<path d="M332.707 225.334C335.112 225.325 337.421 226.275 339.124 227.973C340.828 229.671 341.784 231.978 341.782 234.384V276.717C341.782 280.643 338.599 283.825 334.673 283.825H329.715C326.397 283.825 323.707 281.135 323.707 277.817V234.384C323.707 229.39 327.755 225.342 332.748 225.342L332.707 225.334Z" fill="#72A7FF" stroke="black" stroke-width="6" stroke-linecap="round" stroke-linejoin="round"/>
<path d="M323.673 234.183V208.15C323.671 205.753 324.621 203.453 326.316 201.757C328.01 200.061 330.309 199.108 332.706 199.108C335.11 199.1 337.418 200.048 339.121 201.745C340.824 203.441 341.781 205.746 341.781 208.15V234.183" fill="#72A7FF"/>
<path d="M323.673 234.183V208.15C323.671 205.753 324.621 203.453 326.316 201.757C328.01 200.061 330.309 199.108 332.706 199.108V199.108C335.11 199.1 337.418 200.048 339.121 201.745C340.824 203.441 341.781 205.746 341.781 208.15V234.183" stroke="black" stroke-width="6" stroke-linecap="round" stroke-linejoin="round"/>
<path d="M341.781 264.733V276.717C341.781 280.643 338.599 283.825 334.673 283.825H318.631C313.36 283.825 309.086 279.554 309.081 274.283C309.081 269.009 313.357 264.733 318.631 264.733H323.631" fill="#72A7FF"/>
<path d="M341.781 264.733V276.717C341.781 280.643 338.599 283.825 334.673 283.825H318.631C313.36 283.825 309.086 279.554 309.081 274.283V274.283C309.081 269.009 313.357 264.733 318.631 264.733H323.631" stroke="black" stroke-width="6" stroke-linecap="round" stroke-linejoin="round"/>
<path d="M366.773 224.644C371.639 223.523 376.492 226.559 377.613 231.425L387.118 272.695C387.999 276.52 385.612 280.336 381.786 281.217L376.954 282.33C373.721 283.075 370.496 281.057 369.751 277.823L359.997 235.474C359.459 233.137 359.871 230.682 361.143 228.649C362.415 226.616 364.442 225.172 366.779 224.634L366.773 224.644Z" fill="#72A7FF" stroke="black" stroke-width="6" stroke-linecap="round" stroke-linejoin="round"/>
<path d="M359.94 235.317L354.106 209.95C352.995 205.087 356.029 200.241 360.89 199.117C365.754 198.001 370.603 201.037 371.723 205.9L377.556 231.275" fill="#72A7FF"/>
<path d="M359.94 235.317L354.106 209.95C352.995 205.087 356.029 200.241 360.89 199.117V199.117C365.754 198.001 370.603 201.037 371.723 205.9L377.556 231.275" stroke="black" stroke-width="6" stroke-linecap="round" stroke-linejoin="round"/>
<path d="M384.406 261.05L387.098 272.717C387.522 274.553 387.198 276.483 386.197 278.081C385.197 279.678 383.602 280.813 381.765 281.233L366.165 284.825C361.029 286.004 355.909 282.801 354.723 277.667C353.539 272.528 356.743 267.403 361.881 266.217L366.798 265.092" fill="#72A7FF"/>
<path d="M384.406 261.05L387.098 272.717C387.522 274.553 387.198 276.483 386.197 278.081C385.197 279.678 383.602 280.813 381.765 281.233L366.165 284.825C361.029 286.004 355.909 282.801 354.723 277.667V277.667C353.539 272.528 356.743 267.403 361.881 266.217L366.798 265.092" stroke="black" stroke-width="6" stroke-linecap="round" stroke-linejoin="round"/>
<path d="M294.648 99.8418C294.648 99.8418 283.398 76.1085 275.481 89.1418C267.565 102.175 288.106 115.217 288.106 115.217" fill="#72A7FF"/>
<path d="M294.648 99.8418C294.648 99.8418 283.398 76.1085 275.481 89.1418C267.565 102.175 288.106 115.217 288.106 115.217" stroke="black" stroke-width="6" stroke-linecap="round" stroke-linejoin="round"/>
<circle cx="331.99" cy="161.75" r="75.6667" fill="#72A7FF" stroke="black" stroke-width="6" stroke-linecap="round" stroke-linejoin="round"/>
<path d="M296.973 154.9C294.256 164.658 303.731 164.517 310.214 156.95C320.106 158.517 331.373 153.158 321.214 146.417" stroke="black" stroke-width="6" stroke-linecap="round" stroke-linejoin="round"/>
<ellipse cx="286.593" cy="148.435" rx="5.375" ry="8.525" transform="rotate(-19.23 286.593 148.435)" fill="black"/>
<ellipse cx="324.671" cy="135.16" rx="5.375" ry="8.525" transform="rotate(-19.23 324.671 135.16)" fill="black"/>
<ellipse cx="301.379" cy="105.258" rx="9.60833" ry="6.375" transform="rotate(-35.42 301.379 105.258)" fill="#9BC3FF"/>
<path d="M328.54 88.0167C328.54 88.0167 322.615 62.4417 336.923 67.7167C351.231 72.9917 343.215 96.05 343.215 96.05" fill="#72A7FF"/>
<path d="M328.54 88.0167C328.54 88.0167 322.615 62.4417 336.923 67.7167C351.231 72.9917 343.215 96.05 343.215 96.05" stroke="black" stroke-width="6" stroke-linecap="round" stroke-linejoin="round"/>
<path d="M403.306 185.775C403.306 185.775 425.74 132.208 417.348 120.675C412.431 113.925 402.281 115.125 397.423 127.55C397.423 127.55 394.34 119.15 390.048 121.95C385.756 124.75 390.331 143.467 390.331 143.467C390.331 143.467 381.998 158.133 380.29 165.575" fill="#72A7FF"/>
<path d="M403.306 185.775C403.306 185.775 425.74 132.208 417.348 120.675C412.431 113.925 402.281 115.125 397.423 127.55C397.423 127.55 394.34 119.15 390.048 121.95C385.756 124.75 390.331 143.467 390.331 143.467C390.331 143.467 381.998 158.133 380.29 165.575" stroke="black" stroke-width="6" stroke-linecap="round" stroke-linejoin="round"/>
<path d="M233.998 172.225C233.998 172.225 254.79 194.208 258.232 203.492C261.673 212.775 239.848 214.2 223.565 199.85" fill="#3592A2"/>
<path d="M233.998 172.225C233.998 172.225 254.79 194.208 258.232 203.492C261.673 212.775 239.848 214.2 223.565 199.85" stroke="black" stroke-width="6" stroke-linecap="round" stroke-linejoin="round"/>
<path d="M185.881 293.2H180.923C176.997 293.2 173.815 290.018 173.815 286.092V243.742C173.815 238.748 177.863 234.7 182.856 234.7C187.85 234.7 191.898 238.748 191.898 243.742V287.192C191.898 290.51 189.208 293.2 185.89 293.2L185.881 293.2Z" fill="#3592A2" stroke="black" stroke-width="6" stroke-linecap="round" stroke-linejoin="round"/>
<path d="M191.889 243.55V217.525C191.892 215.128 190.941 212.828 189.247 211.132C187.552 209.436 185.253 208.483 182.856 208.483C180.458 208.483 178.158 209.436 176.463 211.132C174.767 212.827 173.814 215.127 173.814 217.525V243.55" fill="#3592A2"/>
<path d="M191.889 243.55V217.525C191.892 215.128 190.941 212.828 189.247 211.132C187.552 209.436 185.253 208.483 182.856 208.483V208.483C180.458 208.483 178.158 209.436 176.463 211.132C174.767 212.827 173.814 215.127 173.814 217.525V243.55" stroke="black" stroke-width="6" stroke-linecap="round" stroke-linejoin="round"/>
<path d="M173.814 274.108V286.092C173.814 290.018 176.997 293.2 180.923 293.2H196.931C202.205 293.2 206.481 288.924 206.481 283.65C206.477 278.379 202.202 274.108 196.931 274.108H191.889" fill="#3592A2"/>
<path d="M173.814 274.108V286.092C173.814 290.018 176.997 293.2 180.923 293.2H196.931C202.205 293.2 206.481 288.924 206.481 283.65V283.65C206.477 278.379 202.202 274.108 196.931 274.108H191.889" stroke="black" stroke-width="6" stroke-linecap="round" stroke-linejoin="round"/>
<path d="M143.634 292.398L138.754 291.522C134.89 290.828 132.32 287.133 133.014 283.269L140.499 241.586C141.381 236.671 146.081 233.402 150.996 234.284C155.911 235.167 159.18 239.867 158.297 244.782L150.618 287.548C150.032 290.814 146.908 292.986 143.642 292.4L143.634 292.398Z" fill="#3592A2" stroke="black" stroke-width="6" stroke-linecap="round" stroke-linejoin="round"/>
<path d="M158.323 244.6L162.923 218.975C163.802 214.065 160.539 209.371 155.631 208.483C153.267 208.049 150.828 208.576 148.854 209.946C146.88 211.316 145.534 213.417 145.114 215.783L140.506 241.408" fill="#3592A2"/>
<path d="M158.323 244.6L162.923 218.975C163.802 214.065 160.539 209.371 155.631 208.483V208.483C153.267 208.049 150.828 208.576 148.854 209.946C146.88 211.316 145.534 213.417 145.114 215.783L140.506 241.408" stroke="black" stroke-width="6" stroke-linecap="round" stroke-linejoin="round"/>
<path d="M135.114 271.475L132.997 283.275C132.305 287.139 134.876 290.832 138.739 291.525L154.514 294.383C159.703 295.313 164.663 291.863 165.597 286.675C166.522 281.487 163.074 276.53 157.889 275.592L152.889 274.7" fill="#3592A2"/>
<path d="M135.114 271.475L132.997 283.275C132.305 287.139 134.876 290.832 138.739 291.525L154.514 294.383C159.703 295.313 164.663 291.863 165.597 286.675V286.675C166.522 281.487 163.074 276.53 157.889 275.592L152.889 274.7" stroke="black" stroke-width="6" stroke-linecap="round" stroke-linejoin="round"/>
<path d="M222.223 119.133C222.223 119.133 245.656 122.142 245.831 136.367C245.914 143.033 227.973 143.775 227.973 143.775" fill="#3592A2"/>
<path d="M222.223 119.133C222.223 119.133 245.656 122.142 245.831 136.367C245.914 143.033 227.973 143.775 227.973 143.775" stroke="black" stroke-width="6" stroke-linecap="round" stroke-linejoin="round"/>
<circle cx="166.448" cy="165.117" r="75.6667" fill="#3592A2" stroke="black" stroke-width="6" stroke-linecap="round" stroke-linejoin="round"/>
<path d="M184.94 157.067C192.04 164.292 183.673 168.733 174.34 165.275C166.44 171.425 153.99 172.192 159.615 161.375" stroke="black" stroke-width="6" stroke-linecap="round" stroke-linejoin="round"/>
<ellipse cx="190.91" cy="146.403" rx="5.375" ry="8.525" transform="rotate(-9.71 190.91 146.403)" fill="black"/>
<ellipse cx="151.16" cy="153.202" rx="5.375" ry="8.525" transform="rotate(-9.71 151.16 153.202)" fill="black"/>
<path d="M100.764 131.633C69.5561 144.45 77.0061 174.592 111.181 149.683L100.764 131.633Z" fill="#3592A2"/>
<path d="M100.764 131.633C69.5561 144.45 77.0061 174.592 111.181 149.683" stroke="black" stroke-width="6" stroke-linecap="round" stroke-linejoin="round"/>
<ellipse cx="205.938" cy="115.33" rx="6.375" ry="9.60833" transform="rotate(-53.49 205.938 115.33)" fill="#4B9EAC"/>
<path d="M106.698 187.792C106.698 187.792 84.2813 134.233 92.6563 122.717C97.573 115.967 107.723 117.167 112.581 129.583C112.581 129.583 115.656 121.183 119.956 123.983C124.256 126.783 119.673 145.508 119.673 145.508C119.673 145.508 128.006 160.175 129.715 167.617" fill="#3592A2"/>
<path d="M106.698 187.792C106.698 187.792 84.2813 134.233 92.6563 122.717C97.573 115.967 107.723 117.167 112.581 129.583C112.581 129.583 115.656 121.183 119.956 123.983C124.256 126.783 119.673 145.508 119.673 145.508C119.673 145.508 128.006 160.175 129.715 167.617" stroke="black" stroke-width="6" stroke-linecap="round" stroke-linejoin="round"/>
</svg>
