<svg width="500" height="375" viewBox="0 0 500 375" fill="none" xmlns="http://www.w3.org/2000/svg">
<rect width="500" height="375" fill="white"/>
<path d="M276.85 103.025C276.85 103.025 220.475 119.425 210.833 69.542C270.416 46.067 276.85 103.025 276.85 103.025Z" fill="#72A7FF" stroke="black" stroke-width="6" stroke-linecap="round" stroke-linejoin="round"/>
<path d="M286.416 97.7418C286.416 97.7418 350.582 97.7001 343.582 40.0168C280.191 34.7751 286.416 97.7418 286.416 97.7418Z" fill="#72A7FF" stroke="black" stroke-width="6" stroke-linecap="round" stroke-linejoin="round"/>
<path d="M282.791 161.967C282.791 161.967 300.791 99.4669 251.958 86.4502" stroke="black" stroke-width="6" stroke-linecap="round" stroke-linejoin="round"/>
<path d="M282.333 113.617C283.458 98.1003 290.508 81.8253 308.766 70.6169" stroke="black" stroke-width="6" stroke-linecap="round" stroke-linejoin="round"/>
<rect x="199.383" y="210" width="159.05" height="36.2417" rx="14.36" fill="#FCD97B" stroke="black" stroke-width="6" stroke-linecap="round" stroke-linejoin="round"/>
<path d="M229.458 246.242V221.083" stroke="black" stroke-width="6" stroke-linecap="round" stroke-linejoin="round"/>
<path d="M262.424 246.242V221.083" stroke="black" stroke-width="6" stroke-linecap="round" stroke-linejoin="round"/>
<path d="M295.391 246.242V221.083" stroke="black" stroke-width="6" stroke-linecap="round" stroke-linejoin="round"/>
<path d="M328.349 246.242V221.083" stroke="black" stroke-width="6" stroke-linecap="round" stroke-linejoin="round"/>
<path d="M199.383 221.084H358.433" stroke="black" stroke-width="6" stroke-linecap="round" stroke-linejoin="round"/>
<rect x="199.383" y="173.759" width="159.05" height="36.2417" rx="14.36" fill="#FCD97B" stroke="black" stroke-width="6" stroke-linecap="round" stroke-linejoin="round"/>
<path d="M229.458 210V184.842" stroke="black" stroke-width="6" stroke-linecap="round" stroke-linejoin="round"/>
<path d="M262.424 210V184.842" stroke="black" stroke-width="6" stroke-linecap="round" stroke-linejoin="round"/>
<path d="M295.391 210V184.842" stroke="black" stroke-width="6" stroke-linecap="round" stroke-linejoin="round"/>
<path d="M328.349 210V184.842" stroke="black" stroke-width="6" stroke-linecap="round" stroke-linejoin="round"/>
<path d="M199.383 184.842H358.433" stroke="black" stroke-width="6" stroke-linecap="round" stroke-linejoin="round"/>
<rect x="199.383" y="137.517" width="159.05" height="36.2417" rx="14.36" fill="#FCD97B" stroke="black" stroke-width="6" stroke-linecap="round" stroke-linejoin="round"/>
<path d="M229.458 173.758V148.6" stroke="black" stroke-width="6" stroke-linecap="round" stroke-linejoin="round"/>
<path d="M262.424 173.758V148.6" stroke="black" stroke-width="6" stroke-linecap="round" stroke-linejoin="round"/>
<path d="M295.391 173.758V148.6" stroke="black" stroke-width="6" stroke-linecap="round" stroke-linejoin="round"/>
<path d="M328.349 173.758V148.6" stroke="black" stroke-width="6" stroke-linecap="round" stroke-linejoin="round"/>
<path d="M199.383 148.6H358.433" stroke="black" stroke-width="6" stroke-linecap="round" stroke-linejoin="round"/>
<path d="M230 335.292C236.525 326.7 243.675 317.292 253.492 312.875C361.667 306.767 384.85 244.458 377.5 233.583C370.15 222.708 304.65 250.592 246.441 235.833C171.8 216.867 119.567 266.25 87.1665 335.292" fill="#3592A2"/>
<path d="M230 335.292C236.525 326.7 243.675 317.292 253.491 312.875C361.666 306.767 384.85 244.458 377.5 233.583C370.15 222.708 304.65 250.592 246.442 235.833C171.8 216.867 119.567 266.25 87.1665 335.292" stroke="black" stroke-width="6" stroke-linecap="round" stroke-linejoin="round"/>
<path d="M396.041 99.5C386.766 100.392 378.416 104.642 379.325 119.075H379.166C380.083 104.642 371.725 100.392 362.45 99.5C371.725 98.6167 380.083 94.3583 379.166 79.9333H379.308C378.416 94.3583 386.766 98.6167 396.041 99.5Z" fill="white" stroke="black" stroke-width="6" stroke-linecap="round" stroke-linejoin="round"/>
<path d="M412.833 309.25C403.558 310.133 395.199 314.383 396.116 328.817H395.974C396.883 314.383 388.533 310.133 379.258 309.25C388.533 308.358 396.883 304.108 395.974 289.675H396.116C395.199 304.108 403.558 308.333 412.833 309.25Z" fill="white" stroke="black" stroke-width="6" stroke-linecap="round" stroke-linejoin="round"/>
<path d="M163.467 182.625C152.4 183.683 142.425 188.758 143.517 205.958H143.333C144.417 188.742 134.45 183.667 123.383 182.625C134.45 181.558 144.417 176.492 143.333 159.292H143.5C142.425 176.492 152.4 181.558 163.467 182.625Z" fill="white" stroke="black" stroke-width="6" stroke-linecap="round" stroke-linejoin="round"/>
</svg>
