<svg width="500" height="375" viewBox="0 0 500 375" fill="none" xmlns="http://www.w3.org/2000/svg">
<rect width="500" height="375" rx="60" fill="white"/>
<path d="M217.975 165.883C217.975 165.883 175.125 132.883 165.858 146.133C156.592 159.383 191.767 200.3 191.767 200.3" fill="#72A7FF"/>
<path d="M217.975 165.883C217.975 165.883 175.125 132.883 165.858 146.133C156.592 159.383 191.767 200.3 191.767 200.3" stroke="black" stroke-width="6" stroke-linecap="round" stroke-linejoin="round"/>
<path d="M303.283 103.333C303.283 103.333 310.783 69.2167 291.833 76.4334C272.883 83.65 283.883 114.167 283.883 114.167" fill="#72A7FF"/>
<path d="M303.283 103.333C303.283 103.333 310.783 69.2167 291.833 76.4334C272.883 83.65 283.883 114.167 283.883 114.167" stroke="black" stroke-width="6" stroke-linecap="round" stroke-linejoin="round"/>
<circle cx="292.041" cy="198.867" r="100.65" fill="#72A7FF" stroke="black" stroke-width="6" stroke-linecap="round" stroke-linejoin="round"/>
<path d="M237.608 180.3C231.816 187.275 241.083 193.042 252.658 190.675C260.833 199.383 274.724 203.175 273.749 192.717" stroke="black" stroke-width="6" stroke-linecap="round" stroke-linejoin="round"/>
<ellipse cx="236.67" cy="156.843" rx="11.3417" ry="7.15" transform="rotate(-71.41 236.67 156.843)" fill="black"/>
<ellipse cx="287.52" cy="173.938" rx="11.3417" ry="7.15" transform="rotate(-71.41 287.52 173.938)" fill="black"/>
<path d="M240.366 189.917C240.366 189.917 232.499 209.242 246.366 213.908C260.233 218.575 265.533 198.65 265.533 198.65" stroke="black" stroke-width="6" stroke-linecap="round" stroke-linejoin="round"/>
<ellipse cx="269.526" cy="118.717" rx="12.7833" ry="8.48333" transform="rotate(-10.86 269.526 118.717)" fill="#9BC3FF"/>
<path d="M348.549 118.575C348.549 118.575 363.158 86.85 373.924 104.058C384.691 121.267 357.499 138.917 357.499 138.917" fill="#72A7FF"/>
<path d="M348.549 118.575C348.549 118.575 363.158 86.85 373.924 104.058C384.691 121.267 357.499 138.917 357.499 138.917" stroke="black" stroke-width="6" stroke-linecap="round" stroke-linejoin="round"/>
<path d="M228.391 168.95L128.008 157.125L150.258 90.9417L237.391 142.175C244.599 145.342 236.049 170.783 228.391 168.95Z" fill="#FCD97B" stroke="black" stroke-width="6" stroke-linecap="round" stroke-linejoin="round"/>
<path d="M289.408 187.5L187.675 177.192L209.933 111.008L297.216 164.275C303.408 167.133 296.075 188.95 289.408 187.5Z" fill="#FCD97B" stroke="black" stroke-width="6" stroke-linecap="round" stroke-linejoin="round"/>
<ellipse cx="139.141" cy="124.042" rx="34.9083" ry="31.475" transform="rotate(-71.41 139.141 124.042)" fill="#FCD97B" stroke="black" stroke-width="6" stroke-linecap="round" stroke-linejoin="round"/>
<ellipse cx="198.818" cy="144.111" rx="34.9083" ry="31.475" transform="rotate(-71.41 198.818 144.111)" fill="#FCD97B" stroke="black" stroke-width="6" stroke-linecap="round" stroke-linejoin="round"/>
<ellipse cx="198.818" cy="144.111" rx="22.4333" ry="20.225" transform="rotate(-71.41 198.818 144.111)" fill="black"/>
<ellipse cx="139.142" cy="124.042" rx="22.4333" ry="20.225" transform="rotate(-71.41 139.142 124.042)" fill="black"/>
<ellipse cx="134.784" cy="117.529" rx="8.63333" ry="7.78333" transform="rotate(-71.41 134.784 117.529)" fill="white"/>
<ellipse cx="143.651" cy="136.228" rx="5.625" ry="5.075" transform="rotate(-71.41 143.651 136.228)" fill="white"/>
<ellipse cx="202.348" cy="156.844" rx="5.625" ry="5.075" transform="rotate(-71.41 202.348 156.844)" fill="white"/>
<ellipse cx="194.105" cy="137.484" rx="8.63333" ry="7.78333" transform="rotate(-71.41 194.105 137.484)" fill="white"/>
<path d="M303.575 216.158C303.575 216.158 276.908 169.108 263.208 177.717C249.508 186.325 266.058 237.717 266.058 237.717" fill="#72A7FF"/>
<path d="M303.575 216.158C303.575 216.158 276.908 169.108 263.208 177.717C249.508 186.325 266.058 237.717 266.058 237.717" stroke="black" stroke-width="6" stroke-linecap="round" stroke-linejoin="round"/>
</svg>
