<svg width="500" height="375" viewBox="0 0 500 375" fill="none" xmlns="http://www.w3.org/2000/svg">
<rect width="500" height="375" rx="60" fill="white"/>
<path d="M215.833 100.7H122.783C107.411 100.7 94.95 113.161 94.95 128.533V128.533C94.95 135.914 97.8826 142.993 103.103 148.211C108.323 153.43 115.402 156.36 122.783 156.358H132.5C136.758 162.775 147.683 175 166.783 169.875C166.783 169.875 152.733 167.533 148.958 156.358H215.833C231.202 156.358 243.662 143.902 243.667 128.533V128.533C243.667 113.161 231.205 100.7 215.833 100.7Z" fill="white" stroke="black" stroke-width="6" stroke-linecap="round" stroke-linejoin="round"/>
<circle cx="129.458" cy="128.383" r="8.36667" fill="black"/>
<circle cx="159.717" cy="128.383" r="8.36667" fill="black"/>
<circle cx="189.975" cy="128.383" r="8.36667" fill="black"/>
<path d="M299.508 275.108V275.108C306.149 275.108 311.533 280.492 311.533 287.133V343.458C311.533 348.682 307.298 352.917 302.075 352.917H295.483C291.065 352.917 287.483 349.335 287.483 344.917V287.133C287.483 280.492 292.867 275.108 299.508 275.108Z" fill="#3592A2" stroke="black" stroke-width="6" stroke-linecap="round" stroke-linejoin="round"/>
<path d="M287.5 286.883V252.25C287.5 245.609 292.884 240.225 299.525 240.225V240.225C302.713 240.225 305.771 241.492 308.025 243.748C310.279 246.003 311.544 249.062 311.541 252.25V286.883" fill="#3592A2"/>
<path d="M287.5 286.883V252.25C287.5 245.609 292.884 240.225 299.525 240.225V240.225C302.713 240.225 305.771 241.492 308.025 243.748C310.279 246.003 311.544 249.062 311.541 252.25V286.883" stroke="black" stroke-width="6" stroke-linecap="round" stroke-linejoin="round"/>
<path d="M311.525 327.5V343.442C311.525 348.661 307.294 352.892 302.075 352.892H280.783C277.416 352.894 274.185 351.558 271.804 349.177C269.422 346.797 268.083 343.567 268.083 340.2V340.2C268.083 333.186 273.769 327.5 280.783 327.5H287.45" fill="#3592A2"/>
<path d="M311.525 327.5V343.442C311.525 348.661 307.294 352.892 302.075 352.892H280.783C277.416 352.894 274.185 351.558 271.804 349.177C269.422 346.797 268.083 343.567 268.083 340.2V340.2C268.083 333.186 273.769 327.5 280.783 327.5H287.45" stroke="black" stroke-width="6" stroke-linecap="round" stroke-linejoin="round"/>
<path d="M336.983 275.108V275.108C343.624 275.108 349.008 280.492 349.008 287.133V343.458C349.008 348.682 344.773 352.917 339.55 352.917H332.958C328.54 352.917 324.958 349.335 324.958 344.917V287.133C324.958 280.492 330.342 275.108 336.983 275.108V275.108Z" fill="#3592A2" stroke="black" stroke-width="6" stroke-linecap="round" stroke-linejoin="round"/>
<path d="M325 286.883V252.25C325 245.609 330.384 240.225 337.025 240.225V240.225C343.647 240.253 349 245.628 349 252.25V286.883" fill="#3592A2"/>
<path d="M325 286.883V252.25C325 245.609 330.384 240.225 337.025 240.225V240.225C343.647 240.253 349 245.628 349 252.25V286.883" stroke="black" stroke-width="6" stroke-linecap="round" stroke-linejoin="round"/>
<path d="M349 327.5V343.442C349 348.661 344.769 352.892 339.55 352.892H318.258C314.891 352.894 311.66 351.558 309.278 349.177C306.896 346.797 305.558 343.567 305.558 340.2V340.2C305.558 333.186 311.244 327.5 318.258 327.5H324.925" fill="#3592A2"/>
<path d="M349 327.5V343.442C349 348.661 344.769 352.892 339.55 352.892H318.258C314.891 352.894 311.66 351.558 309.278 349.177C306.896 346.797 305.558 343.567 305.558 340.2V340.2C305.558 333.186 311.244 327.5 318.258 327.5H324.925" stroke="black" stroke-width="6" stroke-linecap="round" stroke-linejoin="round"/>
<path d="M229.45 130.3C229.45 130.3 198.342 134.683 198.342 153.633C198.342 162.45 222.217 163.2 222.217 163.2" fill="#3592A2"/>
<path d="M229.45 130.3C229.45 130.3 198.342 134.683 198.342 153.633C198.342 162.45 222.217 163.2 222.217 163.2" stroke="black" stroke-width="6" stroke-linecap="round" stroke-linejoin="round"/>
<ellipse cx="304.4" cy="190.533" rx="100.65" ry="100.65" fill="#3592A2" stroke="black" stroke-width="6" stroke-linecap="round" stroke-linejoin="round"/>
<path d="M259.792 208.542C252.108 219.608 264.067 223.583 275.525 216.925C287.258 223.225 303.758 221.433 293.95 208.508" stroke="black" stroke-width="6" stroke-linecap="round" stroke-linejoin="round"/>
<ellipse cx="249.575" cy="195.908" rx="7.15" ry="11.3417" fill="black"/>
<ellipse cx="303.217" cy="195.908" rx="7.15" ry="11.3417" fill="black"/>
<path d="M315.017 299.225H269.833L252.525 233.775H297.708L315.017 299.225V299.225Z" fill="white" stroke="black" stroke-width="6" stroke-linecap="round" stroke-linejoin="round"/>
<path d="M323.25 249.65C323.25 249.65 278.975 249.467 286.508 265.058C294.042 280.65 327.275 274.767 327.275 274.767" fill="#3592A2"/>
<path d="M323.25 249.65C323.25 249.65 278.975 249.467 286.508 265.058C294.042 280.65 327.275 274.767 327.275 274.767" stroke="black" stroke-width="6" stroke-linecap="round" stroke-linejoin="round"/>
<path d="M245.608 254.692C254.775 254.692 262.6 254.692 270.608 258.733C279.908 263.408 263.108 282.717 247.983 275.1C231.275 266.692 222.192 248.65 222.192 248.65" fill="#3592A2"/>
<path d="M245.608 254.692C254.775 254.692 262.6 254.692 270.608 258.733C279.908 263.408 263.108 282.717 247.983 275.1C231.275 266.692 222.192 248.65 222.192 248.65" stroke="black" stroke-width="6" stroke-linecap="round" stroke-linejoin="round"/>
<path d="M356.075 140C383.7 151.883 378.383 190.317 341.508 162.292Z" fill="#3592A2"/>
<path d="M356.075 140C383.7 151.883 378.383 190.317 341.508 162.292" stroke="black" stroke-width="6" stroke-linecap="round" stroke-linejoin="round"/>
<ellipse cx="239.348" cy="139.952" rx="12.7833" ry="8.48333" transform="rotate(-51.99 239.348 139.952)" fill="#4B9EAC"/>
<rect x="161.342" y="22.0917" width="148.717" height="55.6667" rx="27.8333" fill="white" stroke="black" stroke-width="6" stroke-linecap="round" stroke-linejoin="round"/>
<path d="M197.042 44.675C190.692 33.1167 180.425 38.625 182.1 47.9C183.325 54.7584 193.675 63.5834 195.258 63.6167C197.083 63.65 207.5 55.1667 209.167 47.6584C210.908 39.85 202.267 34.0584 195.242 41.9334" stroke="black" stroke-width="6" stroke-linecap="round" stroke-linejoin="round"/>
<path d="M235.767 44.675C229.417 33.1167 219.167 38.625 220.833 47.9C222.067 54.7584 232.417 63.5834 234 63.6167C235.825 63.6167 246.2 55.1667 247.883 47.6584C249.625 39.85 240.983 34.0584 233.95 41.9334" stroke="black" stroke-width="6" stroke-linecap="round" stroke-linejoin="round"/>
<path d="M274.5 44.675C268.15 33.1167 257.892 38.625 259.558 47.9C260.792 54.7584 271.133 63.5834 272.717 63.6167C274.542 63.6167 284.925 55.1667 286.6 47.6584C288.35 39.85 279.7 34.0584 272.675 41.9334" stroke="black" stroke-width="6" stroke-linecap="round" stroke-linejoin="round"/>
</svg>
