<svg width="500" height="375" viewBox="0 0 500 375" fill="none" xmlns="http://www.w3.org/2000/svg">
<rect width="500" height="375" rx="60" fill="white"/>
<path d="M399.817 125.2C399.817 125.2 418.334 123.017 427.634 128.2C436.934 133.383 425.467 166.333 425.467 166.333" fill="#72A7FF"/>
<path d="M399.817 125.2C399.817 125.2 418.334 123.017 427.634 128.2C436.934 133.383 425.467 166.333 425.467 166.333" stroke="black" stroke-width="6" stroke-linecap="round" stroke-linejoin="round"/>
<path d="M281.708 215.833C281.708 215.833 271.292 254.567 259.533 238.583C247.775 222.6 263.792 193.508 263.792 193.508" fill="#72A7FF"/>
<path d="M281.708 215.833C281.708 215.833 271.292 254.567 259.533 238.583C247.775 222.6 263.792 193.508 263.792 193.508" stroke="black" stroke-width="6" stroke-linecap="round" stroke-linejoin="round"/>
<path d="M323.658 259.558V259.558C329.245 259.558 333.775 264.088 333.775 269.675V317.075C333.756 321.451 330.209 324.991 325.833 325H320.283C316.564 325 313.55 321.985 313.55 318.267V269.675C313.55 264.088 318.079 259.558 323.666 259.558H323.658Z" fill="#72A7FF" stroke="black" stroke-width="6" stroke-linecap="round" stroke-linejoin="round"/>
<path d="M313.542 269.467V240.3C313.542 234.713 318.071 230.183 323.658 230.183V230.183C329.244 230.188 333.77 234.715 333.775 240.3V269.467" fill="#72A7FF"/>
<path d="M313.542 269.467V240.3C313.542 234.713 318.071 230.183 323.658 230.183V230.183C329.244 230.188 333.77 234.715 333.775 240.3V269.467" stroke="black" stroke-width="6" stroke-linecap="round" stroke-linejoin="round"/>
<path d="M333.775 303.667V317.075C333.757 321.451 330.209 324.991 325.833 325H307.917C305.082 325.002 302.362 323.878 300.357 321.874C298.352 319.87 297.225 317.151 297.225 314.317V314.317C297.225 311.482 298.352 308.763 300.357 306.759C302.362 304.756 305.082 303.631 307.917 303.633H313.558" fill="#72A7FF"/>
<path d="M333.775 303.667V317.075C333.757 321.451 330.209 324.991 325.833 325H307.917C305.082 325.002 302.362 323.878 300.357 321.874C298.352 319.87 297.225 317.151 297.225 314.317V314.317C297.225 311.482 298.352 308.763 300.357 306.759C302.362 304.756 305.082 303.631 307.917 303.633H313.558" stroke="black" stroke-width="6" stroke-linecap="round" stroke-linejoin="round"/>
<path d="M355.192 259.558V259.558C360.779 259.558 365.309 264.088 365.309 269.675V317.075C365.309 321.47 361.745 325.033 357.35 325.033H351.8C348.082 325.033 345.067 322.019 345.067 318.3V269.675C345.067 264.088 349.596 259.558 355.184 259.558H355.192Z" fill="#72A7FF" stroke="black" stroke-width="6" stroke-linecap="round" stroke-linejoin="round"/>
<path d="M345.075 269.467V240.3C345.075 234.713 349.605 230.183 355.192 230.183V230.183C360.777 230.188 365.304 234.715 365.309 240.3V269.467" fill="#72A7FF"/>
<path d="M345.075 269.467V240.3C345.075 234.713 349.605 230.183 355.192 230.183V230.183C360.777 230.188 365.304 234.715 365.309 240.3V269.467" stroke="black" stroke-width="6" stroke-linecap="round" stroke-linejoin="round"/>
<path d="M365.309 303.667V317.075C365.309 321.47 361.746 325.033 357.35 325.033H339.434C333.532 325.033 328.747 320.252 328.742 314.35V314.35C328.747 308.448 333.532 303.667 339.434 303.667H345.075" fill="#72A7FF"/>
<path d="M365.309 303.667V317.075C365.309 321.47 361.746 325.033 357.35 325.033H339.434C333.532 325.033 328.747 320.252 328.742 314.35V314.35C328.747 308.448 333.532 303.667 339.434 303.667H345.075" stroke="black" stroke-width="6" stroke-linecap="round" stroke-linejoin="round"/>
<path d="M310.333 116.108C310.333 116.108 288.917 108.75 278.708 111.783C268.5 114.817 272.433 142.95 272.433 142.95" fill="#72A7FF"/>
<path d="M310.333 116.108C310.333 116.108 288.917 108.75 278.708 111.783C268.5 114.817 272.433 142.95 272.433 142.95" stroke="black" stroke-width="6" stroke-linecap="round" stroke-linejoin="round"/>
<circle cx="343.992" cy="188.725" r="84.7" fill="#72A7FF" stroke="black" stroke-width="6" stroke-linecap="round" stroke-linejoin="round"/>
<ellipse cx="320.893" cy="165.826" rx="9.54167" ry="6.01667" transform="rotate(-83.71 320.893 165.826)" fill="black"/>
<ellipse cx="365.753" cy="170.779" rx="9.54167" ry="6.01667" transform="rotate(-83.71 365.753 170.779)" fill="black"/>
<path fill-rule="evenodd" clip-rule="evenodd" d="M349.634 195C348.992 199.392 345.084 198.4 340.192 197.692C335.3 196.983 331.267 196.817 331.909 192.425C332.55 188.033 337.034 185.05 341.909 185.758C346.784 186.467 350.275 190.617 349.634 195Z" stroke="black" stroke-width="6" stroke-linecap="round" stroke-linejoin="round"/>
<ellipse cx="313.546" cy="123.553" rx="10.7583" ry="7.14167" transform="rotate(-25.91 313.546 123.553)" fill="#9BC3FF"/>
<path d="M396.8 228.283C396.8 228.283 405.133 269.9 419.725 256.492C434.317 243.083 418.692 209.825 418.692 209.825" fill="#72A7FF"/>
<path d="M396.8 228.283C396.8 228.283 405.133 269.9 419.725 256.492C434.317 243.083 418.692 209.825 418.692 209.825" stroke="black" stroke-width="6" stroke-linecap="round" stroke-linejoin="round"/>
<path d="M170.075 164.9C170.075 164.9 173.225 135.675 186.425 146.517C199.625 157.358 182.65 178.733 182.65 178.733" fill="#72A7FF"/>
<path d="M170.075 164.9C170.075 164.9 173.225 135.675 186.425 146.517C199.625 157.358 182.65 178.733 182.65 178.733" stroke="black" stroke-width="6" stroke-linecap="round" stroke-linejoin="round"/>
<path d="M68.7251 252.542C68.7251 299.317 106.65 324.917 153.425 324.917C200.2 324.917 238.125 299.317 238.125 252.542C238.125 205.767 200.208 159.408 153.425 159.408C106.642 159.408 68.7251 205.767 68.7251 252.542Z" fill="#72A7FF" stroke="black" stroke-width="6" stroke-linecap="round" stroke-linejoin="round"/>
<ellipse cx="176.734" cy="210.358" rx="6.01667" ry="9.54167" fill="black"/>
<ellipse cx="131.6" cy="210.358" rx="6.01667" ry="9.54167" fill="black"/>
<path fill-rule="evenodd" clip-rule="evenodd" d="M165.1 223.925C165.1 228.092 160.692 227.875 155.258 227.875C149.825 227.875 145.408 228.058 145.408 223.925C145.408 219.792 149.817 216.425 155.258 216.425C160.7 216.425 165.1 219.8 165.1 223.925Z" stroke="black" stroke-width="6" stroke-linecap="round" stroke-linejoin="round"/>
<ellipse cx="172.125" cy="175.815" rx="7.14167" ry="10.7583" transform="rotate(-78.59 172.125 175.815)" fill="#9BC3FF"/>
<path d="M129.892 164.9C129.892 164.9 126.75 135.675 113.55 146.517C100.35 157.358 117.317 178.733 117.317 178.733" fill="#72A7FF"/>
<path d="M129.892 164.9C129.892 164.9 126.75 135.675 113.55 146.517C100.35 157.358 117.317 178.733 117.317 178.733" stroke="black" stroke-width="6" stroke-linecap="round" stroke-linejoin="round"/>
<path d="M176.867 296.45V319.058C176.867 323.449 180.426 327.008 184.817 327.008H197.1V285.833C197.1 277.549 190.384 270.833 182.1 270.833V270.833C174.19 270.838 167.229 276.052 165 283.642" fill="#72A7FF"/>
<path d="M176.867 296.45V319.058C176.867 323.449 180.426 327.008 184.817 327.008H197.1V285.833C197.1 277.549 190.384 270.833 182.1 270.833V270.833C174.19 270.838 167.229 276.052 165 283.642" stroke="black" stroke-width="6" stroke-linecap="round" stroke-linejoin="round"/>
<path d="M176.867 305.642V319.058C176.867 323.449 180.426 327.008 184.817 327.008H202.733C205.568 327.01 208.288 325.886 210.293 323.882C212.298 321.878 213.425 319.16 213.425 316.325V316.325C213.425 313.49 212.298 310.771 210.293 308.768C208.288 306.764 205.568 305.639 202.733 305.642H197.1" fill="#72A7FF"/>
<path d="M176.867 305.642V319.058C176.867 323.449 180.426 327.008 184.817 327.008H202.733C205.568 327.01 208.288 325.886 210.293 323.882C212.298 321.878 213.425 319.16 213.425 316.325V316.325C213.425 313.49 212.298 310.771 210.293 308.768C208.288 306.764 205.568 305.639 202.733 305.642H197.1" stroke="black" stroke-width="6" stroke-linecap="round" stroke-linejoin="round"/>
<path d="M157.3 296.45V319.058C157.3 321.168 158.139 323.192 159.631 324.683C161.124 326.174 163.148 327.01 165.258 327.008H177.5V285.833C177.5 277.549 170.784 270.833 162.5 270.833V270.833C154.58 270.836 147.61 276.058 145.383 283.658" fill="#72A7FF"/>
<path d="M157.3 296.45V319.058C157.3 321.168 158.139 323.192 159.631 324.683C161.124 326.174 163.148 327.01 165.258 327.008H177.5V285.833C177.5 277.549 170.784 270.833 162.5 270.833V270.833C154.58 270.836 147.61 276.058 145.383 283.658" stroke="black" stroke-width="6" stroke-linecap="round" stroke-linejoin="round"/>
<path d="M157.3 305.642V319.058C157.3 321.168 158.139 323.192 159.631 324.683C161.124 326.174 163.148 327.01 165.258 327.008H183.175C189.075 327.008 193.858 322.225 193.858 316.325V316.325C193.858 310.425 189.075 305.642 183.175 305.642H177.5" fill="#72A7FF"/>
<path d="M157.3 305.642V319.058C157.3 321.168 158.139 323.192 159.631 324.683C161.124 326.174 163.148 327.01 165.258 327.008H183.175C189.075 327.008 193.858 322.225 193.858 316.325V316.325C193.858 310.425 189.075 305.642 183.175 305.642H177.5" stroke="black" stroke-width="6" stroke-linecap="round" stroke-linejoin="round"/>
<path fill-rule="evenodd" clip-rule="evenodd" d="M232.85 115.5C237.5 117.908 243.633 120.325 250.833 113.55C257.5 107.175 258.542 100.483 256.842 95.1917C255.88 92.3384 254.119 89.8217 251.767 87.9417C249.448 86.1559 246.666 85.0741 243.75 84.825C238.708 84.5 233.7 86.8167 230.817 92.65C230.138 93.9956 230.029 95.5578 230.515 96.9844C231.001 98.411 232.041 99.582 233.4 100.233C234.741 100.899 236.293 100.994 237.705 100.498C239.117 100.002 240.269 98.9573 240.9 97.6C241.201 96.6928 242.061 96.0901 243.017 96.1167C243.696 96.1915 244.341 96.4573 244.875 96.8833C245.479 97.3234 245.921 97.9501 246.133 98.6667C246.675 100.242 245.992 102.667 243.017 105.433C241.208 107.092 238.858 105.925 237.1 105.008C237.011 104.964 236.923 104.921 236.835 104.877C232.256 102.605 228.722 100.851 225.092 106.575C222.2 111.167 220.033 115.233 220.033 115.233C218.988 117.002 218.993 119.201 220.047 120.965C221.1 122.728 223.034 123.775 225.087 123.692C227.14 123.609 228.984 122.41 229.892 120.567C229.892 120.567 231.042 118.417 232.85 115.5ZM221.817 134.583L223.092 132.392C224.116 130.662 224.135 128.517 223.142 126.77C222.149 125.022 220.295 123.942 218.285 123.937C216.275 123.933 214.417 125.007 213.417 126.75L212.192 128.85C210.609 131.508 211.48 134.946 214.138 136.529C216.796 138.112 220.234 137.241 221.817 134.583Z" fill="black"/>
<path fill-rule="evenodd" clip-rule="evenodd" d="M194.8 85.375C200.683 85.525 208.033 84.925 211.917 74.5417C215.45 64.8334 213.217 57.5667 208.942 53.0834C206.559 50.6853 203.535 49.0246 200.233 48.3C197.02 47.6509 193.687 47.9401 190.633 49.1334C185.367 51.3 181.467 56.1084 181.467 63.4167C181.453 65.1049 182.12 66.7275 183.316 67.9189C184.512 69.1103 186.137 69.7702 187.825 69.75C189.503 69.7596 191.113 69.0887 192.288 67.8905C193.462 66.6923 194.101 65.0691 194.058 63.3917C194.058 62.0084 194.625 61.2417 195.458 60.8917C196.176 60.629 196.954 60.577 197.7 60.7417C198.527 60.8793 199.284 61.2901 199.85 61.9084C201.183 63.2084 201.742 65.9834 200.075 70.2417C199.083 72.8 196.142 72.7917 193.908 72.7417C193.791 72.7417 193.674 72.7416 193.557 72.7416C187.836 72.7385 183.425 72.7361 182.608 80.2417C181.942 86.2917 181.775 91.4584 181.775 91.4584C181.608 93.7515 182.705 95.9531 184.637 97.2005C186.568 98.4478 189.026 98.5424 191.048 97.447C193.069 96.3517 194.332 94.2409 194.342 91.9417C194.342 91.9417 194.433 89.2084 194.8 85.375ZM193.133 110.075L193.333 107.25C193.483 105.584 192.95 103.929 191.857 102.663C190.764 101.397 189.203 100.628 187.533 100.533C185.868 100.405 184.22 100.95 182.959 102.047C181.698 103.143 180.93 104.699 180.825 106.367L180.633 109.092C180.355 111.38 181.354 113.638 183.235 114.97C185.117 116.303 187.578 116.497 189.644 115.474C191.711 114.452 193.051 112.379 193.133 110.075Z" fill="black"/>
<path fill-rule="evenodd" clip-rule="evenodd" d="M150.275 106.233C153.858 103.075 157.958 98.7334 154.625 90.4C151.475 82.675 146.2 79.5334 141.142 79.2167C138.414 79.0738 135.704 79.7189 133.333 81.075C131.065 82.4426 129.237 84.4325 128.067 86.8084C126.108 90.95 126.383 95.9334 130.35 100.317C131.256 101.336 132.535 101.947 133.897 102.013C135.26 102.079 136.591 101.594 137.592 100.667C138.605 99.7636 139.207 98.4873 139.261 97.1311C139.314 95.7748 138.814 94.4551 137.875 93.475C137.21 92.9168 136.99 91.989 137.333 91.1917C137.621 90.6427 138.06 90.1884 138.6 89.8834C139.17 89.5221 139.844 89.3582 140.517 89.4167C142.025 89.4834 143.842 90.8667 145.183 94.2917C145.975 96.375 144.217 97.9667 142.85 99.1417C142.786 99.1995 142.723 99.257 142.66 99.3142C139.233 102.421 136.583 104.825 140.167 109.783C143.075 113.742 145.775 116.925 145.775 116.925C147.577 119.074 150.78 119.356 152.929 117.554C155.078 115.752 155.36 112.549 153.558 110.4C153.558 110.4 152.133 108.733 150.275 106.233ZM162.708 121.858L161.292 120.058C160.181 118.605 158.375 117.861 156.563 118.112C154.751 118.363 153.215 119.569 152.541 121.27C151.867 122.97 152.16 124.901 153.308 126.325L154.675 128.058C155.767 129.538 157.574 130.312 159.399 130.08C161.223 129.848 162.78 128.646 163.466 126.94C164.153 125.234 163.863 123.29 162.708 121.858Z" fill="black"/>
</svg>
