<svg width="500" height="375" viewBox="0 0 500 375" fill="none" xmlns="http://www.w3.org/2000/svg">
<rect width="500" height="375" rx="60" fill="white"/>
<path d="M180.725 280.561V280.561C178.706 279.745 177.095 278.161 176.244 276.157C175.394 274.152 175.375 271.893 176.191 269.874L184.195 250.073C185.796 246.113 190.303 244.201 194.263 245.801V245.801C198.223 247.402 200.135 251.909 198.535 255.869L190.177 276.544C188.673 280.265 184.438 282.062 180.717 280.558L180.725 280.561Z" fill="#72A7FF" stroke="black" stroke-width="6" stroke-linecap="round" stroke-linejoin="round"/>
<path d="M179.467 279.817L188.733 286.758C192.354 289.453 197.474 288.708 200.175 285.092V285.092C201.474 283.354 202.028 281.172 201.715 279.025C201.403 276.879 200.249 274.945 198.508 273.65L191.917 268.608" fill="#72A7FF"/>
<path d="M179.467 279.817L188.733 286.758C192.354 289.453 197.474 288.708 200.175 285.092V285.092C201.474 283.354 202.028 281.172 201.715 279.025C201.403 276.879 200.249 274.945 198.508 273.65L191.917 268.608" stroke="black" stroke-width="6" stroke-linecap="round" stroke-linejoin="round"/>
<path d="M199.25 253.658L196.883 231.492C196.667 229.452 195.649 227.582 194.053 226.294C192.457 225.006 190.414 224.406 188.375 224.625V224.625C186.335 224.841 184.464 225.859 183.175 227.455C181.885 229.051 181.283 231.093 181.5 233.133L183.458 252.242" fill="#72A7FF"/>
<path d="M199.25 253.658L196.883 231.492C196.667 229.452 195.649 227.582 194.053 226.294C192.457 225.006 190.414 224.406 188.375 224.625V224.625C186.335 224.841 184.464 225.859 183.175 227.455C181.885 229.051 181.283 231.093 181.5 233.133L183.458 252.242" stroke="black" stroke-width="6" stroke-linecap="round" stroke-linejoin="round"/>
<path d="M128.039 245.977V245.977C131.355 242.886 136.549 243.069 139.64 246.386L154.201 262.011C157.112 265.136 156.94 270.03 153.815 272.941V272.941C150.691 275.853 145.797 275.68 142.885 272.556L127.683 256.241C124.946 253.305 125.109 248.707 128.045 245.971L128.039 245.977Z" fill="#72A7FF" stroke="black" stroke-width="6" stroke-linecap="round" stroke-linejoin="round"/>
<path d="M129.241 245.158L119.033 250.625C117.123 251.648 115.698 253.388 115.073 255.463C114.447 257.537 114.673 259.775 115.7 261.683V261.683C117.836 265.654 122.783 267.145 126.758 265.017L134.116 261.175" fill="#72A7FF"/>
<path d="M129.241 245.158L119.033 250.625C117.123 251.648 115.698 253.388 115.073 255.463C114.447 257.537 114.673 259.775 115.7 261.683V261.683C117.836 265.654 122.783 267.145 126.758 265.017L134.116 261.175" stroke="black" stroke-width="6" stroke-linecap="round" stroke-linejoin="round"/>
<path d="M155.916 269.842L164.466 249.258C165.256 247.365 165.261 245.236 164.479 243.34C163.697 241.444 162.194 239.937 160.3 239.15V239.15C158.406 238.36 156.275 238.355 154.378 239.137C152.481 239.918 150.971 241.422 150.183 243.317L143.933 258.175" fill="#72A7FF"/>
<path d="M155.916 269.842L164.466 249.258C165.256 247.365 165.261 245.236 164.479 243.34C163.697 241.444 162.194 239.937 160.3 239.15V239.15C158.406 238.36 156.275 238.355 154.378 239.137C152.481 239.918 150.971 241.422 150.183 243.317L143.933 258.175" stroke="black" stroke-width="6" stroke-linecap="round" stroke-linejoin="round"/>
<path d="M220.917 153.025C220.917 153.025 232.208 150.025 236.925 142.192C241.875 133.933 242.117 128.592 247.083 129.025C254.258 129.65 254.35 142.267 253.225 150.95C251.208 166.508 229.533 180.117 229.533 180.117" fill="#72A7FF"/>
<path d="M220.917 153.025C220.917 153.025 232.208 150.025 236.925 142.192C241.875 133.933 242.117 128.592 247.083 129.025C254.258 129.65 254.35 142.267 253.225 150.95C251.208 166.508 229.533 180.117 229.533 180.117" stroke="black" stroke-width="6" stroke-linecap="round" stroke-linejoin="round"/>
<path d="M185.883 123.392C185.883 123.392 201.183 115.283 209.258 116.35C217.333 117.417 217.717 139.167 217.717 139.167" fill="#72A7FF"/>
<path d="M185.883 123.392C185.883 123.392 201.183 115.283 209.258 116.35C217.333 117.417 217.717 139.167 217.717 139.167" stroke="black" stroke-width="6" stroke-linecap="round" stroke-linejoin="round"/>
<circle cx="169.133" cy="182.267" r="64.775" fill="#72A7FF" stroke="black" stroke-width="6" stroke-linecap="round" stroke-linejoin="round"/>
<path d="M191.142 183.633C191.142 183.633 193.85 192.967 200.109 191.408C206.367 189.85 204.825 179.675 204.825 179.675" stroke="black" stroke-width="6" stroke-linecap="round" stroke-linejoin="round"/>
<path d="M206.8 171.425C213.467 176.991 206.692 181.483 198.467 179.291C192.25 185.191 181.7 186.875 185.6 177.191" stroke="black" stroke-width="6" stroke-linecap="round" stroke-linejoin="round"/>
<ellipse cx="210.994" cy="161.865" rx="4.6" ry="7.3" transform="rotate(-15.27 210.994 161.865)" fill="black"/>
<path d="M171.225 170.117L180.417 171.183L173.458 177.575" stroke="black" stroke-width="6" stroke-linecap="round" stroke-linejoin="round"/>
<ellipse cx="195.785" cy="134.44" rx="5.45833" ry="8.225" transform="rotate(-53.28 195.785 134.44)" fill="#9BC3FF"/>
<path d="M123.617 139.783C123.617 139.783 109.367 140.35 102.967 145.375C96.5666 150.4 109.167 173.925 109.167 173.925" fill="#72A7FF"/>
<path d="M123.617 139.783C123.617 139.783 109.367 140.35 102.967 145.375C96.5666 150.4 109.167 173.925 109.167 173.925" stroke="black" stroke-width="6" stroke-linecap="round" stroke-linejoin="round"/>
<path d="M122.5 218.617C122.5 218.617 100.333 242.292 96.2501 227.667C92.1668 213.042 115.767 197.8 115.767 197.8" fill="#72A7FF"/>
<path d="M122.5 218.617C122.5 218.617 100.333 242.292 96.2501 227.667C92.1668 213.042 115.767 197.8 115.767 197.8" stroke="black" stroke-width="6" stroke-linecap="round" stroke-linejoin="round"/>
<path d="M325.264 264.039V264.039C324.384 259.859 327.06 255.758 331.239 254.879L352.14 250.482C356.576 249.549 360.929 252.389 361.863 256.825V256.825C362.689 260.752 360.175 264.606 356.247 265.432L334.433 270.021C332.424 270.446 330.328 270.054 328.608 268.932C326.887 267.809 325.684 266.049 325.264 264.039Z" fill="#72A7FF" stroke="black" stroke-width="6" stroke-linecap="round" stroke-linejoin="round"/>
<path d="M361.367 255.458L366.575 265.833C367.548 267.769 367.712 270.013 367.031 272.07C366.349 274.126 364.878 275.828 362.942 276.8V276.8C361.007 277.776 358.764 277.942 356.706 277.262C354.649 276.582 352.947 275.112 351.975 273.175L348.175 265.8" fill="#72A7FF"/>
<path d="M361.367 255.458L366.575 265.833C367.548 267.769 367.712 270.013 367.031 272.07C366.349 274.126 364.878 275.828 362.942 276.8V276.8C361.007 277.776 358.764 277.942 356.706 277.262C354.649 276.582 352.947 275.112 351.975 273.175L348.175 265.8" stroke="black" stroke-width="6" stroke-linecap="round" stroke-linejoin="round"/>
<path d="M325.333 263.333L321.833 241.325C321.188 237.118 324.057 233.179 328.258 232.5V232.5C332.477 231.835 336.438 234.708 337.117 238.925L339.708 254.833" fill="#72A7FF"/>
<path d="M325.333 263.333L321.833 241.325C321.188 237.118 324.057 233.179 328.258 232.5V232.5C332.477 231.835 336.438 234.708 337.117 238.925L339.708 254.833" stroke="black" stroke-width="6" stroke-linecap="round" stroke-linejoin="round"/>
<path d="M349.116 257.845V257.845C347.49 253.895 349.374 249.376 353.324 247.75L373.075 239.622C375.088 238.793 377.348 238.798 379.357 239.636C381.367 240.474 382.961 242.075 383.79 244.088V244.088C384.523 245.871 384.519 247.871 383.777 249.65C383.035 251.429 381.618 252.84 379.835 253.574L359.214 262.061C355.264 263.686 350.745 261.802 349.119 257.853L349.116 257.845Z" fill="#72A7FF" stroke="black" stroke-width="6" stroke-linecap="round" stroke-linejoin="round"/>
<path d="M383.042 242.833L390.042 252.058C392.767 255.655 392.062 260.781 388.467 263.508V263.508C386.742 264.819 384.566 265.389 382.419 265.094C380.273 264.798 378.332 263.661 377.025 261.933L371.942 255.375" fill="#72A7FF"/>
<path d="M383.042 242.833L390.042 252.058C392.767 255.655 392.062 260.781 388.467 263.508V263.508C386.742 264.819 384.566 265.389 382.419 265.094C380.273 264.798 378.332 263.661 377.025 261.933L371.942 255.375" stroke="black" stroke-width="6" stroke-linecap="round" stroke-linejoin="round"/>
<path d="M349.042 257.158L341.592 236.158C340.169 232.131 342.275 227.713 346.3 226.283V226.283C348.233 225.595 350.36 225.703 352.212 226.585C354.065 227.467 355.491 229.049 356.175 230.983L361.625 246.15" fill="#72A7FF"/>
<path d="M349.042 257.158L341.592 236.158C340.169 232.131 342.275 227.713 346.3 226.283V226.283C348.233 225.595 350.36 225.703 352.212 226.585C354.065 227.467 355.491 229.049 356.175 230.983L361.625 246.15" stroke="black" stroke-width="6" stroke-linecap="round" stroke-linejoin="round"/>
<path d="M278.475 151.892C278.475 151.892 267.217 148.767 262.592 140.85C257.733 132.517 257.542 127.2 252.592 127.583C245.417 128.125 245.183 140.733 246.217 149.433C248.058 165.008 269.55 178.883 269.55 178.883" fill="#72A7FF"/>
<path d="M278.475 151.892C278.475 151.892 267.217 148.767 262.592 140.85C257.733 132.517 257.542 127.2 252.592 127.583C245.417 128.125 245.183 140.733 246.217 149.433C248.058 165.008 269.55 178.883 269.55 178.883" stroke="black" stroke-width="6" stroke-linecap="round" stroke-linejoin="round"/>
<path d="M336.567 118.333C336.567 118.333 340.142 96.1416 328.233 101.475C316.325 106.808 324.517 126 324.517 126" fill="#72A7FF"/>
<path d="M336.567 118.333C336.567 118.333 340.142 96.1416 328.233 101.475C316.325 106.808 324.517 126 324.517 126" stroke="black" stroke-width="6" stroke-linecap="round" stroke-linejoin="round"/>
<circle cx="332.867" cy="180.1" r="64.775" fill="#72A7FF" stroke="black" stroke-width="6" stroke-linecap="round" stroke-linejoin="round"/>
<path d="M295.15 163.117C288.483 168.675 295.258 173.175 303.483 170.992C309.692 176.892 320.242 178.583 316.35 168.892" stroke="black" stroke-width="6" stroke-linecap="round" stroke-linejoin="round"/>
<path d="M318.817 160.158C319.65 164.417 326.725 166.225 331.542 163.65" stroke="black" stroke-width="6" stroke-linecap="round" stroke-linejoin="round"/>
<path d="M287.008 152.608C287.65 156.85 293.392 158.575 297.35 155.942" stroke="black" stroke-width="6" stroke-linecap="round" stroke-linejoin="round"/>
<path d="M296.908 171.325C296.908 171.325 295.442 180.108 301.033 181.6C306.625 183.092 310.242 175.142 310.242 175.142" stroke="black" stroke-width="6" stroke-linecap="round" stroke-linejoin="round"/>
<ellipse cx="301.075" cy="137.648" rx="8.225" ry="5.45833" transform="rotate(-36.69 301.075 137.648)" fill="#9BC3FF"/>
<path d="M366.208 126.425C366.208 126.425 374.425 105.5 381.975 116.158C389.525 126.817 372.692 139.167 372.692 139.167" fill="#72A7FF"/>
<path d="M366.208 126.425C366.208 126.425 374.425 105.5 381.975 116.158C389.525 126.817 372.692 139.167 372.692 139.167" stroke="black" stroke-width="6" stroke-linecap="round" stroke-linejoin="round"/>
<path d="M371.742 196.583C371.742 196.583 399.925 225.183 403.8 210.508C406.067 201.908 398.8 193.225 392.458 187.508" fill="#72A7FF"/>
<path d="M371.742 196.583C371.742 196.583 399.925 225.183 403.8 210.508C406.067 201.908 398.8 193.225 392.458 187.508" stroke="black" stroke-width="6" stroke-linecap="round" stroke-linejoin="round"/>
<path d="M253.65 107.458L253.558 118.258" stroke="black" stroke-width="6" stroke-linecap="round" stroke-linejoin="round"/>
<path d="M261.15 119.967L267.342 113.142" stroke="black" stroke-width="6" stroke-linecap="round" stroke-linejoin="round"/>
<path d="M246.017 120.4L240.783 115.2" stroke="black" stroke-width="6" stroke-linecap="round" stroke-linejoin="round"/>
<path fill-rule="evenodd" clip-rule="evenodd" d="M169.642 91.8667C172.039 90.8216 173.152 88.0452 172.142 85.6333C172.275 85.55 152.892 44.3833 136.25 52.1C133.052 53.6181 130.704 56.4897 129.85 59.925C126.558 71.4 133.6 91.675 138.292 101.4C140.083 105.067 148.725 104.683 146.75 98.0167C146.088 95.7678 144.936 92.7453 143.831 89.8481C143.295 88.4403 142.769 87.0621 142.317 85.8167C142.368 85.7816 142.409 85.7324 142.433 85.675C145 83.7738 147.75 82.1324 150.642 80.775C152.419 79.929 154.238 79.1725 156.092 78.5083C159.883 83.8333 163.217 89.7667 163.217 89.8333C164.478 92.11 167.3 93.003 169.642 91.8667ZM138.85 62.6083C141.125 61.5083 145.783 65.5666 150.2 70.8333C148.917 71.3 147.75 71.8416 146.508 72.4666C143.944 73.6846 141.466 75.0767 139.092 76.6333C136.85 69.75 135.817 64.0083 138.85 62.6083Z" fill="#FF79AB"/>
<path d="M215.542 71.9917C216.073 74.5586 214.443 77.0761 211.884 77.6417C209.324 78.2805 206.709 76.8215 205.909 74.3083C205.575 73.0083 205.2 71.4917 204.792 69.9083C202.55 61.1917 201.275 48.3917 197.6 49.225C191.767 50.5583 198.284 71.2083 199.625 75.8917C199.955 77.1152 199.782 78.4198 199.145 79.5153C198.508 80.6107 197.46 81.4063 196.234 81.725C195.566 81.9075 194.874 81.9807 194.184 81.9417C192.279 81.8411 190.628 80.5898 190.017 78.7833C188.65 74.55 180.767 54.9083 176.075 56.325C173.617 57.0833 182.784 77.7 183.775 80.8167C184.181 82.0002 184.1 83.2964 183.55 84.4201C183 85.5438 182.026 86.4029 180.842 86.8083C178.396 87.7959 175.609 86.6435 174.575 84.2167C172.767 79.8083 170.784 75.4667 169.167 70.9917C165.325 60.6417 164.225 50.25 175.567 46.7667C178.715 45.6514 182.182 45.8681 185.167 47.3667C186.592 44.5417 189.225 42.3667 193.617 41.4083C210.65 37.7 213.334 62.3167 215.542 71.9917Z" fill="#FF79AB"/>
<path fill-rule="evenodd" clip-rule="evenodd" d="M251.508 67.5833C251.325 57.4389 251.133 47.2861 250.933 37.125C250.833 34.6 247.283 32.4167 244.217 32.6C241.756 32.8092 239.609 34.3517 238.625 36.6167C231.55 34.0333 225.717 36.5083 221.842 41.2C218.167 45.725 216.692 52.6 216.842 58.7C217 65.2583 219.142 71.3583 222.475 73.7C226.242 76.25 230.45 75.8833 235.117 70.4167C237.224 67.6604 239.108 64.74 240.75 61.6833C240.777 61.62 240.79 61.57 240.801 61.528C240.818 61.465 240.83 61.42 240.875 61.375C241.114 63.6639 241.344 65.9583 241.567 68.2583C241.96 70.8267 244.255 72.6657 246.848 72.4897C249.44 72.3137 251.466 70.1814 251.508 67.5833ZM239.342 46.1167L239.517 47.5917C238.383 54.1667 229.167 69.0667 228.767 68.7667C227.683 67.95 226.35 62.5167 226.417 58.4417C226.483 53.8333 227.55 48.925 230.008 46.1167C235.125 40.9083 238.508 44.8583 239.342 46.1167Z" fill="#FF79AB"/>
<path d="M286.508 37.5C280.747 45.9167 275.414 54.4889 270.508 63.2167C272.867 62.8334 275.233 62.4917 277.617 62.175C278.928 62.1617 280.191 62.674 281.123 63.5978C282.054 64.5215 282.577 65.7798 282.575 67.0917C282.332 69.7257 280.021 71.6774 277.383 71.475C271.933 71.2861 266.494 71.2667 261.067 71.4167C260.205 71.4369 259.35 71.2602 258.567 70.9C257.413 70.4026 256.523 69.4414 256.115 68.253C255.707 67.0646 255.82 65.7594 256.425 64.6584C262.031 55.7397 268.095 47.1171 274.592 38.825C271.258 39.075 267.925 39.3806 264.592 39.7417C261.608 39.7417 259.592 36.95 259.467 34.4167C259.342 31.8834 261.75 29.65 264.95 29.6167C270.644 29.5611 276.344 29.6611 282.05 29.9167C285.267 30.0667 287.75 32.325 287.642 34.9167C287.609 35.8913 287.204 36.8162 286.508 37.5Z" fill="#FF79AB"/>
<path fill-rule="evenodd" clip-rule="evenodd" d="M291.75 28C291.708 28.25 291.708 28.5 291.708 28.7417C291.6 31.275 293.933 33.6084 297.1 33.9167C300.267 34.225 302.992 32.4334 303.225 29.9334C303.231 29.8384 303.241 29.7434 303.251 29.6488C303.267 29.4946 303.283 29.3415 303.283 29.1917C303.517 26.6667 301.05 24.3584 297.867 23.975C294.683 23.5917 291.95 25.5 291.75 28ZM299.058 68.6333C300.431 59.3 301.769 49.9667 303.075 40.6333C303.608 35.4417 291.458 33.1333 291.05 39.7417C290.422 49.0194 289.739 58.2972 289 67.575C288.933 70.223 290.944 72.4634 293.583 72.6833C296.342 72.95 298.775 71.225 299.058 68.6333Z" fill="#FF79AB"/>
<path d="M333.817 65C333.15 67.9 332.4 70.475 331.8 72.7C331.666 73.3585 331.488 74.0072 331.267 74.6417C330.442 77.155 327.772 78.5603 325.233 77.8167C322.653 77.2304 320.977 74.7355 321.408 72.125C321.52 71.4659 321.673 70.8146 321.867 70.175C322.375 67.925 322.975 65.2334 323.45 62.675C324.842 55.3667 324.375 46.8917 320.117 46.1917C315.858 45.4917 315.25 55.6167 313.867 64.4334C313.6 66.1 313.408 67.9 313.15 69.5167C313.15 69.8167 313.05 70.1834 312.942 70.8417C312.719 72.0912 312.007 73.2001 310.963 73.9228C309.92 74.6455 308.631 74.9222 307.383 74.6917C304.721 74.4235 302.762 72.0756 302.975 69.4084C302.975 68.9834 303.017 68.575 303.042 68.1417C303.242 66.475 303.45 64.7417 303.583 62.8834C305.083 49.8834 308.158 34.6584 322.817 37.15C336.883 39.875 336.392 53.5334 333.817 65Z" fill="#FF79AB"/>
<path fill-rule="evenodd" clip-rule="evenodd" d="M350.7 93.5167C355.95 92.5 361.667 88.3834 365.358 78.725C368.225 70.8528 371.033 62.9639 373.783 55.0584C374.725 52.6334 372.925 49.7167 369.8 48.6C367.834 47.7833 365.579 48.1027 363.917 49.4334C362.134 47.7818 360 46.5566 357.675 45.85C353.489 44.4467 348.892 45.0167 345.175 47.4C341.954 49.4562 339.689 52.7146 338.883 56.45C338.027 60.1771 338.502 64.0862 340.225 67.5C342.02 71.2413 345.279 74.0757 349.233 75.3334C351.118 75.9239 353.104 76.1169 355.067 75.9C347.392 96.85 338.475 81.4 344.817 79.7334C345.917 77.4334 344.633 74.6167 341.983 73.475C339.333 72.3334 336.308 73.3917 335.317 75.75C333.442 80.3595 334.479 85.6422 337.958 89.2C339.502 90.8853 341.441 92.1597 343.6 92.9084C345.87 93.7398 348.322 93.9498 350.7 93.5167ZM355.184 51.4667C349.567 54.8001 346.85 72.4917 352.025 69.1917C357.359 65.9917 360.984 48.2084 355.184 51.4667Z" fill="#FF79AB"/>
<path d="M157.5 324.008V324.167C156.561 327.722 155.617 331.281 154.667 334.842C154.058 337.15 151.417 338.425 148.833 337.692C147.401 337.288 146.187 336.332 145.458 335.033C142.725 335.375 139.183 334.9 134.9 333.1C129.667 330.842 127.167 326.283 126.725 321C126.507 317.008 127.123 313.015 128.533 309.275C129.831 305.445 131.733 301.846 134.167 298.617C138.092 293.5 143 290.175 148.242 290.925C163.767 292.9 160.95 306.867 160.95 307.025C160.68 308.158 159.967 309.135 158.971 309.738C157.975 310.341 156.779 310.519 155.65 310.233C150.725 309.183 153.517 305.15 153.25 302.167C152.683 291.975 135.267 308.567 136.25 321C136.883 326.833 143.158 327.667 145.858 324.5L143.267 323.717C140.675 322.925 139.192 320.442 139.933 318.242C140.675 316.042 143.267 314.8 145.767 315.567C148.617 316.433 151.469 317.267 154.325 318.067C156.774 318.603 158.332 321.013 157.817 323.467C157.692 323.692 157.583 323.808 157.5 324.008Z" fill="#FF79AB"/>
<path fill-rule="evenodd" clip-rule="evenodd" d="M181.917 338.083C184.923 335.237 186.951 331.512 187.708 327.442C188.614 323.422 188.313 319.224 186.842 315.375C185.225 311.325 182.317 308.425 178.392 307.467C174.467 306.508 170.5 307.767 167.208 310.675C164.159 313.429 161.954 316.992 160.85 320.95C159.639 324.912 159.694 329.154 161.008 333.083C162.39 337.221 165.792 340.364 170.025 341.417C174.298 342.402 178.778 341.146 181.917 338.083ZM175.05 314.817C169.342 311.05 164.65 331.325 172.083 333.15C177.05 334.35 177.958 316.708 175.05 314.817Z" fill="#FF79AB"/>
<path fill-rule="evenodd" clip-rule="evenodd" d="M212.6 342.65C215.363 339.573 217.079 335.698 217.5 331.583C218.076 327.497 217.435 323.332 215.658 319.608C213.725 315.7 210.575 313 206.625 312.408C202.675 311.817 198.825 313.35 195.792 316.517C192.985 319.514 191.081 323.243 190.3 327.275C189.415 331.32 189.811 335.54 191.433 339.35C193.119 343.363 196.747 346.23 201.042 346.942C205.374 347.578 209.733 345.96 212.6 342.65ZM203.883 320C197.9 316.717 194.875 337.3 202.4 338.508C207.433 339.333 206.917 321.667 203.883 320Z" fill="#FF79AB"/>
<path fill-rule="evenodd" clip-rule="evenodd" d="M251.383 346.908C251.878 333.869 252.333 320.833 252.75 307.8C252.75 305.483 250.125 303.833 247.692 303.833C245.333 303.775 243.351 305.595 243.208 307.95C243.147 309.499 243.088 311.049 243.029 312.597C242.967 314.205 242.905 315.812 242.842 317.417C237.692 314.492 233.017 315.808 229.092 319.083C225.167 322.358 222.233 328.05 220.758 333.467C219.175 339.275 219.375 345.183 222.058 348.075C225.033 351.258 229.492 351.858 235.033 347.692C236.983 346.283 239.433 343.525 241.75 340.592L241.908 340.325L241.633 346.658C241.55 349.042 243.608 351.025 246.383 351.075C249.158 351.125 251.383 349.292 251.383 346.908ZM234.75 324.95C237.217 322.833 240.542 325.15 242.5 326.775C242.117 329.392 231.458 345.642 229 343.117C228.2 342.242 228.358 338.975 229.275 335.35C230.308 331.25 232.283 327.067 234.75 324.95Z" fill="#FF79AB"/>
<path d="M307.183 325.992C307.892 330.85 308.242 334.325 308.4 336.975C308.642 342.808 305.067 346.825 300.367 348.7C298.507 349.427 296.53 349.811 294.533 349.833C292.532 349.847 290.548 349.459 288.7 348.692C284.583 346.933 281.858 343.433 282.55 338.258C282.833 335.917 285.2 334.225 287.8 334.4C288.976 334.435 290.089 334.939 290.891 335.8C291.693 336.661 292.116 337.808 292.067 338.983C291.442 344.617 299.267 345.492 299.05 339.817C298.808 330.783 296.808 320.592 295.533 311.617C292.542 311.9 289.8 311.7 289.5 308.1C289.348 305.738 291.081 303.675 293.433 303.417C295.395 302.994 297.339 302.547 299.267 302.075C301.164 301.801 303.018 302.794 303.842 304.525V304.592C303.973 304.911 304.071 305.244 304.133 305.583C304.175 305.858 304.208 306.125 304.25 306.417C304.292 306.708 304.325 306.917 304.358 307.167C305.758 314.767 306.583 321.4 307.183 325.992Z" fill="#FF79AB"/>
<path fill-rule="evenodd" clip-rule="evenodd" d="M336.208 335.917C337.856 332.119 338.253 327.896 337.342 323.858C336.59 319.8 334.657 316.054 331.783 313.092C328.692 309.992 324.875 308.475 320.892 309.158C316.908 309.842 313.775 312.542 311.908 316.508C310.208 320.243 309.59 324.381 310.125 328.45C310.578 332.568 312.299 336.444 315.05 339.542C317.932 342.805 322.286 344.362 326.583 343.667C330.902 342.891 334.529 339.97 336.208 335.917ZM320.733 317.233C314.008 316.033 317.692 336.508 325.217 335.258C330.258 334.408 324.167 317.833 320.733 317.233Z" fill="#FF79AB"/>
<path fill-rule="evenodd" clip-rule="evenodd" d="M367.741 329.367C369.469 325.06 369.733 320.305 368.491 315.833C367.504 311.606 365.16 307.819 361.816 305.05C357.975 302.183 353.5 301.492 348.666 304.383C347.898 304.854 347.187 305.413 346.55 306.05C345.822 303.067 345.094 300.086 344.366 297.108C343.858 294.85 340.925 293.883 338.533 294.417C336.245 294.981 334.82 297.263 335.316 299.567C338.161 311.789 340.972 324.011 343.75 336.233C344.188 337.99 345.71 339.263 347.516 339.383C348.117 339.63 348.759 339.757 349.408 339.758C359.233 340 365.1 335.383 367.741 329.367ZM348.842 315.6C348.925 313.383 349.408 311.425 350.592 310.175V310.158C355.833 306.942 365.05 330.758 353.183 333.933C351.739 327.822 350.292 321.711 348.842 315.6Z" fill="#FF79AB"/>
<path fill-rule="evenodd" clip-rule="evenodd" d="M364.067 293.742C366.717 301.892 369.361 310.036 372 318.175C372.75 320.442 375.417 321.567 377.925 320.7C380.433 319.833 381.842 317.3 381.05 315.117C378.194 307.022 375.333 298.925 372.467 290.825C371.612 288.6 369.121 287.483 366.892 288.325C365.793 288.66 364.875 289.423 364.344 290.441C363.812 291.46 363.713 292.649 364.067 293.742ZM385.017 326.158L384.367 324.358C383.65 322.158 380.867 321.117 378.367 321.983C375.867 322.85 374.367 325.275 375.108 327.542C375.204 327.833 375.302 328.125 375.4 328.417C375.498 328.708 375.596 329 375.692 329.292C376.433 331.575 379.167 332.683 381.75 331.792C384.333 330.9 385.85 328.333 385.017 326.158Z" fill="#FF79AB"/>
</svg>
