<svg width="500" height="375" viewBox="0 0 500 375" fill="none" xmlns="http://www.w3.org/2000/svg">
<rect width="500" height="375" rx="60" fill="white"/>
<path d="M281.875 318.617H275.284C272.775 318.617 270.369 317.62 268.596 315.847C266.822 314.073 265.825 311.667 265.825 309.159V252.834C265.825 249.644 267.092 246.586 269.347 244.331C271.602 242.075 274.661 240.809 277.85 240.809V240.809C281.04 240.813 284.096 242.084 286.348 244.342C288.6 246.601 289.863 249.661 289.859 252.85V310.634C289.859 312.755 289.016 314.79 287.515 316.29C286.015 317.791 283.98 318.634 281.859 318.634L281.875 318.617Z" fill="#72A7FF" stroke="black" stroke-width="6" stroke-linecap="round" stroke-linejoin="round"/>
<path d="M289.867 252.592V217.967C289.867 211.325 284.483 205.942 277.842 205.942V205.942C271.207 205.951 265.833 211.332 265.833 217.967V252.592" fill="#72A7FF"/>
<path d="M289.867 252.592V217.967C289.867 211.325 284.483 205.942 277.842 205.942V205.942C271.207 205.951 265.833 211.332 265.833 217.967V252.592" stroke="black" stroke-width="6" stroke-linecap="round" stroke-linejoin="round"/>
<path d="M265.833 293.233V309.167C265.833 314.387 270.063 318.62 275.283 318.625H296.575C303.589 318.625 309.275 312.939 309.275 305.925V305.925C309.275 302.558 307.937 299.328 305.555 296.948C303.173 294.567 299.943 293.231 296.575 293.233H289.908" fill="#72A7FF"/>
<path d="M265.833 293.233V309.167C265.833 314.387 270.063 318.62 275.283 318.625H296.575C303.589 318.625 309.275 312.939 309.275 305.925V305.925C309.275 302.558 307.937 299.328 305.555 296.948C303.173 294.567 299.943 293.231 296.575 293.233H289.908" stroke="black" stroke-width="6" stroke-linecap="round" stroke-linejoin="round"/>
<path d="M244.392 318.617H237.801C235.292 318.617 232.886 317.62 231.113 315.847C229.339 314.073 228.342 311.667 228.342 309.159V252.834C228.342 249.644 229.609 246.586 231.864 244.331C234.119 242.075 237.178 240.809 240.367 240.809V240.809C243.562 240.804 246.628 242.071 248.887 244.331C251.146 246.59 252.413 249.655 252.409 252.85L252.409 310.634C252.409 315.052 248.827 318.634 244.409 318.634L244.392 318.617Z" fill="#72A7FF" stroke="black" stroke-width="6" stroke-linecap="round" stroke-linejoin="round"/>
<path d="M252.392 252.592V217.967C252.392 211.329 247.013 205.946 240.375 205.942V205.942C237.183 205.937 234.12 207.202 231.862 209.458C229.603 211.713 228.334 214.775 228.334 217.967V252.592" fill="#72A7FF"/>
<path d="M252.392 252.592V217.967C252.392 211.329 247.013 205.946 240.375 205.942V205.942C237.183 205.937 234.12 207.202 231.862 209.458C229.603 211.713 228.334 214.775 228.334 217.967V252.592" stroke="black" stroke-width="6" stroke-linecap="round" stroke-linejoin="round"/>
<path d="M228.334 293.233V309.167C228.334 311.675 229.33 314.081 231.104 315.855C232.878 317.629 235.284 318.625 237.792 318.625H259.084C262.451 318.625 265.681 317.287 268.061 314.905C270.441 312.523 271.778 309.293 271.775 305.925V305.925C271.775 302.559 270.438 299.331 268.058 296.951C265.678 294.571 262.45 293.233 259.084 293.233H252.375" fill="#72A7FF"/>
<path d="M228.334 293.233V309.167C228.334 311.675 229.33 314.081 231.104 315.855C232.878 317.629 235.284 318.625 237.792 318.625H259.084C262.451 318.625 265.681 317.287 268.061 314.905C270.441 312.523 271.778 309.293 271.775 305.925V305.925C271.775 302.559 270.438 299.331 268.058 296.951C265.678 294.571 262.45 293.233 259.084 293.233H252.375" stroke="black" stroke-width="6" stroke-linecap="round" stroke-linejoin="round"/>
<path d="M320.375 81.3585C320.375 81.3585 347.109 78.3001 358.175 84.4335C369.242 90.5668 357.492 122.2 357.492 122.2" fill="#72A7FF"/>
<path d="M320.375 81.3585C320.375 81.3585 347.109 78.3001 358.175 84.4335C369.242 90.5668 357.492 122.2 357.492 122.2" stroke="black" stroke-width="6" stroke-linecap="round" stroke-linejoin="round"/>
<circle cx="262.75" cy="157.033" r="100.65" fill="#72A7FF" stroke="black" stroke-width="6" stroke-linecap="round" stroke-linejoin="round"/>
<path d="M288.467 167.333C296.217 161.583 305 170.758 295.134 175.958C303.467 180.567 295.409 192 286.25 184.117" stroke="black" stroke-width="6" stroke-linecap="round" stroke-linejoin="round"/>
<ellipse cx="316.976" cy="158.74" rx="11.3417" ry="7.15" transform="rotate(-83.87 316.976 158.74)" fill="black"/>
<ellipse cx="263.648" cy="153.006" rx="11.3417" ry="7.15" transform="rotate(-83.87 263.648 153.006)" fill="black"/>
<path d="M311.667 143.083C315.529 148.576 321.836 151.829 328.55 151.792" stroke="black" stroke-width="6" stroke-linecap="round" stroke-linejoin="round"/>
<path d="M275.834 138.075C270.186 143.832 261.717 145.801 254.109 143.125" stroke="black" stroke-width="6" stroke-linecap="round" stroke-linejoin="round"/>
<ellipse cx="332.827" cy="113.683" rx="8.48333" ry="12.7833" transform="rotate(-31.88 332.827 113.683)" fill="#9BC3FF"/>
<path d="M220.992 69.7666C220.992 69.7666 200.059 62.5 187.942 66.1333C175.825 69.7666 180.709 110.942 180.709 110.942" fill="#72A7FF"/>
<path d="M220.992 69.7666C220.992 69.7666 200.059 62.5 187.942 66.1333C175.825 69.7666 180.709 110.942 180.709 110.942" stroke="black" stroke-width="6" stroke-linecap="round" stroke-linejoin="round"/>
<path d="M193.483 158.792C193.483 158.792 236.142 123.333 239.375 135.833C247.992 169.217 204.892 190.833 204.892 190.833" fill="#72A7FF"/>
<path d="M193.483 158.792C193.483 158.792 236.142 123.333 239.375 135.833C247.992 169.217 204.892 190.833 204.892 190.833" stroke="black" stroke-width="6" stroke-linecap="round" stroke-linejoin="round"/>
<path d="M205.625 124.709C205.508 127.76 203 130.174 199.946 130.174C196.892 130.174 194.384 127.76 194.267 124.709C194.267 122.659 199.95 114.017 199.95 114.017" fill="#72A7FF"/>
<path d="M205.625 124.709C205.508 127.76 203 130.174 199.946 130.174C196.892 130.174 194.384 127.76 194.267 124.709C194.267 122.659 199.95 114.017 199.95 114.017" stroke="black" stroke-width="6" stroke-linecap="round" stroke-linejoin="round"/>
<path d="M228.333 100.233C228.333 103.368 225.793 105.908 222.658 105.908C219.524 105.908 216.983 103.368 216.983 100.233C216.983 98.1917 222.658 89.5417 222.658 89.5417" fill="#72A7FF"/>
<path d="M228.333 100.233C228.333 103.368 225.793 105.908 222.658 105.908C219.524 105.908 216.983 103.368 216.983 100.233C216.983 98.1917 222.658 89.5417 222.658 89.5417" stroke="black" stroke-width="6" stroke-linecap="round" stroke-linejoin="round"/>
<path d="M362.925 230.875C362.925 234.009 360.384 236.55 357.25 236.55C354.116 236.55 351.575 234.009 351.575 230.875C351.575 228.825 357.25 220.183 357.25 220.183" fill="#72A7FF"/>
<path d="M362.925 230.875C362.925 234.009 360.384 236.55 357.25 236.55C354.116 236.55 351.575 234.009 351.575 230.875C351.575 228.825 357.25 220.183 357.25 220.183" stroke="black" stroke-width="6" stroke-linecap="round" stroke-linejoin="round"/>
<path d="M147.95 162.025C147.833 165.077 145.325 167.491 142.271 167.491C139.217 167.491 136.709 165.077 136.592 162.025C136.592 159.983 142.267 151.333 142.267 151.333" fill="#72A7FF"/>
<path d="M147.95 162.025C147.833 165.077 145.325 167.491 142.271 167.491C139.217 167.491 136.709 165.077 136.592 162.025C136.592 159.983 142.267 151.333 142.267 151.333" stroke="black" stroke-width="6" stroke-linecap="round" stroke-linejoin="round"/>
</svg>
