<svg width="500" height="375" viewBox="0 0 500 375" fill="none" xmlns="http://www.w3.org/2000/svg">
<rect width="500" height="375" rx="60" fill="white"/>
<path d="M100.133 273.883L116.108 256.575C115.517 264.2 127.967 285.208 142.883 288.583L126.325 307.392C109.333 301.817 101.225 289.267 100.133 273.883Z" fill="#72A7FF" stroke="black" stroke-width="6" stroke-linecap="round" stroke-linejoin="round"/>
<path d="M111.125 283.333C111.75 285.742 115.925 292.95 118.15 289.675C117.95 285.767 112.775 280.25 115.108 278.15C117.675 275.842 119.991 284.508 122.833 286.192" fill="#72A7FF"/>
<path d="M111.125 283.333C111.75 285.742 115.925 292.95 118.15 289.675C117.95 285.767 112.775 280.25 115.108 278.15C117.675 275.842 119.991 284.508 122.833 286.192" stroke="black" stroke-width="4" stroke-linecap="round" stroke-linejoin="round"/>
<path d="M111.091 289.492C113.594 285.281 116.922 281.619 120.875 278.725Z" fill="#72A7FF"/>
<path d="M111.091 289.492C113.594 285.281 116.922 281.619 120.875 278.725" stroke="black" stroke-width="4" stroke-linecap="round" stroke-linejoin="round"/>
<path d="M334.608 210.958C350.441 190.25 385.25 175.367 394.358 196.25C402.35 214.583 370.116 211.567 358.733 248.858" fill="#3592A2"/>
<path d="M334.608 210.958C350.441 190.25 385.25 175.367 394.358 196.25C402.35 214.583 370.116 211.567 358.733 248.858" stroke="black" stroke-width="6" stroke-linecap="round" stroke-linejoin="round"/>
<path d="M171.617 204.65C156.9 181.875 119.217 175.367 110.108 196.25C102.117 214.583 134.35 211.567 145.742 248.858" fill="#3592A2"/>
<path d="M171.617 204.65C156.9 181.875 119.217 175.367 110.108 196.25C102.117 214.583 134.35 211.567 145.742 248.858" stroke="black" stroke-width="6" stroke-linecap="round" stroke-linejoin="round"/>
<path d="M310.992 145.659C328.575 144.625 353.2 155.659 345.708 170.95C342.075 178.359 322.933 170.817 322.933 170.817" fill="#3592A2"/>
<path d="M310.992 145.659C328.575 144.625 353.2 155.659 345.708 170.95C342.075 178.359 322.933 170.817 322.933 170.817" stroke="black" stroke-width="6" stroke-linecap="round" stroke-linejoin="round"/>
<path d="M192.633 145.659C175.05 144.625 150.433 155.659 157.917 170.95C161.55 178.359 180.692 170.817 180.692 170.817" fill="#3592A2"/>
<path d="M192.633 145.659C175.05 144.625 150.433 155.659 157.917 170.95C161.55 178.359 180.692 170.817 180.692 170.817" stroke="black" stroke-width="6" stroke-linecap="round" stroke-linejoin="round"/>
<circle cx="251.566" cy="234.183" r="108.142" fill="#3592A2" stroke="black" stroke-width="6" stroke-linecap="round" stroke-linejoin="round"/>
<path d="M237.283 188.583C237.283 188.583 234.658 206.667 249.017 206.667C263.375 206.667 262.808 189.617 262.808 189.617" stroke="black" stroke-width="6" stroke-linecap="round" stroke-linejoin="round"/>
<path d="M232.867 175.975C224.275 187.642 237.033 192.258 249.533 185.458C261.942 192.575 279.717 191.15 269.575 176.975" stroke="black" stroke-width="6" stroke-linecap="round" stroke-linejoin="round"/>
<path d="M297.725 169.433C286.058 167.317 274.125 169.433 274.125 169.433C274.125 169.433 277.758 162.083 291.225 161.233" stroke="black" stroke-width="6" stroke-linecap="round" stroke-linejoin="round"/>
<path d="M203.525 168.559C214.7 167.2 226.858 169.234 226.858 169.234C222.443 164.095 216.158 160.933 209.4 160.45" stroke="black" stroke-width="6" stroke-linecap="round" stroke-linejoin="round"/>
<ellipse cx="201.098" cy="300.849" rx="11.825" ry="17.8083" transform="rotate(-60.62 201.098 300.849)" fill="#4B9EAC"/>
<path d="M219.166 104.867C217.215 107.229 214.682 109.041 211.816 110.125C209.148 111.15 206.261 111.471 203.433 111.058C197.6 110.225 192.116 106.592 190.158 99.7833C189.258 96.5666 191.358 92.9166 194.916 91.7916C200.041 90.1916 201.583 92.7333 202.3 95.6749C203.966 102.258 209.116 106.983 213.133 100.408C216.883 94.4166 208.4 77.4583 207.575 74.9666C208.866 79.8916 193.7 87.4083 183.583 80.9499C179.515 78.1934 176.263 74.3942 174.166 69.9499C173.098 67.9015 172.26 65.7411 171.666 63.5083C170.833 60.2499 173.383 56.3333 177.5 54.9333C181.616 53.5333 185.466 55.1333 186.216 58.3833C186.511 60.0194 186.977 61.62 187.608 63.1583C188.785 65.9838 190.653 68.4682 193.041 70.3833C201.291 76.2749 204.55 68.6416 202.283 60.1916C202.133 59.7666 201.991 59.3583 201.841 58.9083C201.841 58.8166 201.783 58.7249 201.75 58.6333C200.933 56.1166 200.114 53.5972 199.291 51.0749C198.216 47.9666 200.641 44.1499 204.708 42.7416C208.775 41.3333 212.875 42.9499 213.783 46.2166L216.008 54.0583C220.358 67.2583 229.575 92.6999 219.166 104.867Z" fill="#3592A2"/>
<path fill-rule="evenodd" clip-rule="evenodd" d="M274.542 83.0582C275.119 69.8082 275.811 56.5666 276.617 43.3332C276.75 40.0499 272.308 36.9082 268.208 36.8999C264.923 37.0079 261.953 38.8818 260.441 41.7999C251.316 38.0416 243.333 41.1582 237.983 47.2832C232.883 53.1832 230.708 62.2499 230.758 70.2499C230.808 78.8582 233.466 86.8082 237.683 89.8666C242.417 93.2499 247.608 92.7832 253.717 85.7999C255.783 83.4416 258.567 79.0999 261.325 74.6416C261.36 74.5652 261.38 74.5046 261.398 74.4528C261.426 74.3691 261.446 74.3085 261.508 74.2416C261.658 77.2471 261.811 80.2555 261.967 83.2666C262.224 86.5874 265.022 89.134 268.352 89.0788C271.682 89.0237 274.394 86.3857 274.542 83.0582ZM260.608 54.2667L260.725 56.2084C258.608 64.6584 246.133 83.8584 245.75 83.4751C244.4 82.4167 242.875 75.2501 243.125 69.9167C243.425 63.8584 245.025 57.4751 248.425 53.8584C255.466 47.2251 259.666 52.6001 260.608 54.2667Z" fill="#3592A2"/>
<path d="M300.774 104.483C297.946 105.109 294.998 104.93 292.266 103.966C289.687 103.044 287.391 101.471 285.599 99.3998C281.424 94.6576 280.229 87.988 282.499 82.0914C283.091 80.5551 284.29 79.3312 285.815 78.7095C287.339 78.0878 289.052 78.1235 290.549 78.8081C295.216 80.7914 294.874 83.8748 293.724 86.5581C291.133 92.8914 292.208 99.8081 298.883 97.1331C305.183 94.7998 308.766 76.0498 309.591 73.5581C307.666 78.2664 292.166 74.5998 288.483 63.0498C287.044 58.2753 286.815 53.2181 287.816 48.3331C288.157 46.0386 288.793 43.7979 289.708 41.6664C290.841 38.5414 295.049 37.1998 298.874 38.6164C302.699 40.0331 304.641 43.8414 303.183 46.9498C302.57 48.4544 302.064 49.9998 301.666 51.5748C300.854 54.5699 300.799 57.72 301.508 60.7414C304.166 70.6248 310.974 66.6664 314.208 58.5498C314.341 58.1248 314.483 57.7164 314.624 57.2581C314.624 57.1664 314.683 57.0748 314.716 56.9831L317.166 49.4248C318.166 46.2831 322.166 44.8081 326.149 46.3414C330.133 47.8748 332.133 51.6914 330.908 54.8414L327.883 62.3914C323.566 75.5748 315.499 101.458 300.774 104.483Z" fill="#3592A2"/>
<path fill-rule="evenodd" clip-rule="evenodd" d="M341.533 48.075C336.8 59.2694 332.078 70.4667 327.366 81.6667C326.16 84.9781 327.722 88.6584 330.941 90.0917C334.141 91.6667 337.916 90.6167 339.341 87.6667C344.647 76.7278 349.958 65.7917 355.275 54.8583C356.716 51.9083 354.858 47.85 350.883 45.8917C347.066 43.9083 342.816 44.95 341.533 48.075ZM332.166 102.675L333.333 100.233C334.866 97.3333 333.341 93.4583 330.133 91.8833C326.925 90.3083 323.275 91.5167 321.991 94.65L320.991 97.0667C319.721 100.217 321.104 103.813 324.158 105.3C325.567 106.021 327.205 106.149 328.709 105.656C330.213 105.163 331.458 104.09 332.166 102.675Z" fill="#3592A2"/>
<path d="M85.9329 137.783L115.3 160.958C103.158 160.958 71.4163 183.233 67.8996 207.275L36.0996 183.333C42.8496 155.775 61.7246 141.408 85.9329 137.783Z" fill="#72A7FF" stroke="black" stroke-width="6" stroke-linecap="round" stroke-linejoin="round"/>
<path d="M72.3247 156.358C68.5914 157.625 57.6831 165.125 63.1581 168.25C69.3164 167.417 77.4247 158.583 81.0331 162.017C84.9997 165.833 71.5497 170.525 69.2414 175.242" fill="#72A7FF"/>
<path d="M72.3247 156.358C68.5914 157.625 57.6831 165.125 63.1581 168.25C69.3164 167.417 77.4247 158.583 81.0331 162.017C84.9997 165.833 71.5497 170.525 69.2414 175.242" stroke="black" stroke-width="4" stroke-linecap="round" stroke-linejoin="round"/>
<path d="M62.5664 157.05C69.5447 160.494 75.7551 165.313 80.8247 171.217Z" fill="#72A7FF"/>
<path d="M62.5664 157.05C69.5447 160.494 75.7551 165.313 80.8247 171.217" stroke="black" stroke-width="4" stroke-linecap="round" stroke-linejoin="round"/>
<path d="M420.158 111.383L429.033 133.208C422.367 129.433 398.075 131.758 388.667 143.833L378.667 120.842C390.967 107.833 405.775 105.833 420.158 111.383Z" fill="#72A7FF" stroke="black" stroke-width="6" stroke-linecap="round" stroke-linejoin="round"/>
<path d="M406.925 117.317C404.491 116.858 396.183 117.575 398.2 120.975C401.825 122.458 409.033 120.142 409.925 123.125C410.925 126.458 402.1 124.842 399.366 126.7" fill="#72A7FF"/>
<path d="M406.925 117.317C404.491 116.858 396.183 117.575 398.2 120.975C401.825 122.458 409.033 120.142 409.925 123.125C410.925 126.458 402.1 124.842 399.366 126.7" stroke="black" stroke-width="4" stroke-linecap="round" stroke-linejoin="round"/>
<path d="M401.367 114.667C404.118 118.721 406.02 123.291 406.958 128.1Z" fill="#72A7FF"/>
<path d="M401.367 114.667C404.118 118.721 406.02 123.291 406.958 128.1" stroke="black" stroke-width="4" stroke-linecap="round" stroke-linejoin="round"/>
<path d="M140.233 87.5L121.667 106.2C122.633 97.7 109.558 73.7 93 69.3083L112.283 48.9333C131.058 55.8333 139.625 70.2333 140.233 87.5Z" fill="#72A7FF" stroke="black" stroke-width="6" stroke-linecap="round" stroke-linejoin="round"/>
<path d="M128.333 76.4668C127.742 73.7501 123.333 65.5085 120.733 69.0835C120.8 73.4668 126.367 79.8501 123.675 82.1001C120.717 84.6001 118.467 74.7918 115.342 72.8001" fill="#72A7FF"/>
<path d="M128.333 76.4668C127.742 73.7501 123.333 65.5085 120.733 69.0835C120.8 73.4668 126.367 79.8501 123.675 82.1001C120.717 84.6001 118.467 74.7918 115.342 72.8001" stroke="black" stroke-width="4" stroke-linecap="round" stroke-linejoin="round"/>
<path d="M128.6 69.5752C125.632 74.1901 121.763 78.1583 117.225 81.2419Z" fill="#72A7FF"/>
<path d="M128.6 69.5752C125.632 74.1901 121.763 78.1583 117.225 81.2419" stroke="black" stroke-width="4" stroke-linecap="round" stroke-linejoin="round"/>
<path d="M413.175 286.25L390.133 256.792C401.925 259.658 438.033 245.525 447.142 223L472.383 253.767C459.3 278.967 437.558 288.458 413.175 286.25Z" fill="#72A7FF" stroke="black" stroke-width="6" stroke-linecap="round" stroke-linejoin="round"/>
<path d="M430.833 271.425C434.758 271.075 447.133 266.367 442.566 262.042C436.391 261.358 426.416 268.058 423.725 263.875C420.75 259.258 434.933 257.842 438.291 253.808" fill="#72A7FF"/>
<path d="M430.833 271.425C434.758 271.075 447.133 266.367 442.566 262.042C436.391 261.358 426.416 268.058 423.725 263.875C420.75 259.258 434.933 257.842 438.291 253.808" stroke="black" stroke-width="4" stroke-linecap="round" stroke-linejoin="round"/>
<path d="M440.441 273.058C434.48 268.069 429.587 261.927 426.058 255Z" fill="#72A7FF"/>
<path d="M440.441 273.058C434.48 268.069 429.587 261.927 426.058 255" stroke="black" stroke-width="4" stroke-linecap="round" stroke-linejoin="round"/>
<path d="M382.308 329.392L358.55 365.467C357.35 351.5 328.55 317.183 300.575 315.517L324.95 276.558C357.35 281.6 375.75 301.9 382.308 329.392Z" fill="#72A7FF" stroke="black" stroke-width="6" stroke-linecap="round" stroke-linejoin="round"/>
<path d="M359.6 315.566C357.766 311.4 348.058 299.591 345.008 306.183C346.533 313.191 357.508 321.641 353.941 326.133C349.991 331.075 343.216 316.083 337.566 313.883" fill="#72A7FF"/>
<path d="M359.6 315.566C357.766 311.4 348.058 299.591 345.008 306.183C346.533 313.191 357.508 321.641 353.941 326.133C349.991 331.075 343.216 316.083 337.566 313.883" stroke="black" stroke-width="4" stroke-linecap="round" stroke-linejoin="round"/>
<path d="M357.833 304.417C354.554 312.782 349.623 320.4 343.333 326.817Z" fill="#72A7FF"/>
<path d="M357.833 304.417C354.554 312.782 349.623 320.4 343.333 326.817" stroke="black" stroke-width="4" stroke-linecap="round" stroke-linejoin="round"/>
</svg>
