<svg width="500" height="375" viewBox="0 0 500 375" fill="none" xmlns="http://www.w3.org/2000/svg">
<rect width="500" height="375" fill="white"/>
<path d="M285.442 242.592C278.092 251.25 257.983 265.742 261.575 277.183C265.167 288.625 294.75 271.033 306.575 255.4" fill="#72A7FF"/>
<path d="M285.442 242.592C278.092 251.25 257.983 265.742 261.575 277.183C265.167 288.625 294.75 271.033 306.575 255.4" stroke="black" stroke-width="6" stroke-linecap="round" stroke-linejoin="round"/>
<path d="M332.592 270.95V270.95C334.997 270.941 337.307 271.891 339.01 273.589C340.713 275.288 341.669 277.595 341.667 280V322.333C341.667 326.259 338.484 329.441 334.558 329.441H329.6C326.282 329.441 323.592 326.751 323.592 323.433V280C323.592 275.006 327.64 270.958 332.633 270.958L332.592 270.95Z" fill="#72A7FF" stroke="black" stroke-width="6" stroke-linecap="round" stroke-linejoin="round"/>
<path d="M323.558 279.8V253.766C323.556 251.369 324.507 249.069 326.201 247.373C327.895 245.678 330.194 244.725 332.591 244.725V244.725C334.995 244.716 337.304 245.664 339.006 247.361C340.709 249.058 341.666 251.363 341.666 253.766V279.8" fill="#72A7FF"/>
<path d="M323.558 279.8V253.766C323.556 251.369 324.507 249.069 326.201 247.373C327.895 245.678 330.194 244.725 332.591 244.725V244.725C334.995 244.716 337.304 245.664 339.006 247.361C340.709 249.058 341.666 251.363 341.666 253.766V279.8" stroke="black" stroke-width="6" stroke-linecap="round" stroke-linejoin="round"/>
<path d="M341.666 310.35V322.333C341.666 326.259 338.484 329.441 334.558 329.441H318.516C313.245 329.441 308.971 325.171 308.966 319.9V319.9C308.966 314.625 313.242 310.35 318.516 310.35H323.516" fill="#72A7FF"/>
<path d="M341.666 310.35V322.333C341.666 326.259 338.484 329.441 334.558 329.441H318.516C313.245 329.441 308.971 325.171 308.966 319.9V319.9C308.966 314.625 313.242 310.35 318.516 310.35H323.516" stroke="black" stroke-width="6" stroke-linecap="round" stroke-linejoin="round"/>
<path d="M366.658 270.26V270.26C371.524 269.139 376.377 272.175 377.498 277.042L387.003 318.311C387.884 322.137 385.497 325.952 381.672 326.834L376.84 327.946C373.606 328.691 370.381 326.674 369.636 323.44L359.882 281.09C359.344 278.753 359.756 276.299 361.028 274.266C362.3 272.233 364.327 270.788 366.664 270.25L366.658 270.26Z" fill="#72A7FF" stroke="black" stroke-width="6" stroke-linecap="round" stroke-linejoin="round"/>
<path d="M359.825 280.933L353.992 255.567C352.88 250.703 355.914 245.857 360.775 244.733V244.733C365.639 243.617 370.488 246.653 371.608 251.517L377.442 276.892" fill="#72A7FF"/>
<path d="M359.825 280.933L353.992 255.567C352.88 250.703 355.914 245.857 360.775 244.733V244.733C365.639 243.617 370.488 246.653 371.608 251.517L377.442 276.892" stroke="black" stroke-width="6" stroke-linecap="round" stroke-linejoin="round"/>
<path d="M384.292 306.667L386.983 318.333C387.407 320.17 387.083 322.1 386.082 323.697C385.082 325.295 383.487 326.429 381.65 326.85L366.05 330.442C360.914 331.62 355.794 328.417 354.608 323.283V323.283C353.424 318.145 356.629 313.019 361.767 311.833L366.683 310.708" fill="#72A7FF"/>
<path d="M384.292 306.667L386.983 318.333C387.407 320.17 387.083 322.1 386.082 323.697C385.082 325.295 383.487 326.429 381.65 326.85L366.05 330.442C360.914 331.62 355.794 328.417 354.608 323.283V323.283C353.424 318.145 356.629 313.019 361.767 311.833L366.683 310.708" stroke="black" stroke-width="6" stroke-linecap="round" stroke-linejoin="round"/>
<path d="M294.533 145.458C294.533 145.458 283.283 121.725 275.367 134.758C267.45 147.792 287.992 160.833 287.992 160.833" fill="#72A7FF"/>
<path d="M294.533 145.458C294.533 145.458 283.283 121.725 275.367 134.758C267.45 147.792 287.992 160.833 287.992 160.833" stroke="black" stroke-width="6" stroke-linecap="round" stroke-linejoin="round"/>
<circle cx="331.875" cy="207.367" r="75.6667" fill="#72A7FF" stroke="black" stroke-width="6" stroke-linecap="round" stroke-linejoin="round"/>
<path d="M296.858 200.517C294.141 210.275 303.616 210.133 310.1 202.567C319.991 204.133 331.258 198.775 321.1 192.033" stroke="black" stroke-width="6" stroke-linecap="round" stroke-linejoin="round"/>
<ellipse cx="286.478" cy="194.051" rx="5.375" ry="8.525" transform="rotate(-19.23 286.478 194.051)" fill="black"/>
<ellipse cx="324.556" cy="180.776" rx="5.375" ry="8.525" transform="rotate(-19.23 324.556 180.776)" fill="black"/>
<ellipse cx="301.264" cy="150.874" rx="9.60833" ry="6.375" transform="rotate(-35.42 301.264 150.874)" fill="#9BC3FF"/>
<path d="M328.425 133.633C328.425 133.633 322.5 108.058 336.808 113.333C351.117 118.608 343.1 141.666 343.1 141.666" fill="#72A7FF"/>
<path d="M328.425 133.633C328.425 133.633 322.5 108.058 336.808 113.333C351.117 118.608 343.1 141.666 343.1 141.666" stroke="black" stroke-width="6" stroke-linecap="round" stroke-linejoin="round"/>
<path d="M403.191 231.391C403.191 231.391 425.625 177.825 417.233 166.291C412.316 159.541 402.166 160.741 397.308 173.166C397.308 173.166 394.225 164.766 389.933 167.566C385.641 170.366 390.216 189.083 390.216 189.083C390.216 189.083 381.883 203.75 380.175 211.191" fill="#72A7FF"/>
<path d="M403.191 231.391C403.191 231.391 425.625 177.825 417.233 166.291C412.316 159.541 402.166 160.741 397.308 173.166C397.308 173.166 394.225 164.766 389.933 167.566C385.641 170.366 390.216 189.083 390.216 189.083C390.216 189.083 381.883 203.75 380.175 211.191" stroke="black" stroke-width="6" stroke-linecap="round" stroke-linejoin="round"/>
<path d="M233.884 217.842C233.884 217.842 254.675 239.825 258.117 249.108C261.559 258.392 239.734 259.817 223.45 245.467" fill="#3592A2"/>
<path d="M233.884 217.842C233.884 217.842 254.675 239.825 258.117 249.108C261.559 258.392 239.734 259.817 223.45 245.467" stroke="black" stroke-width="6" stroke-linecap="round" stroke-linejoin="round"/>
<path d="M185.767 338.817H180.808C176.882 338.817 173.7 335.634 173.7 331.708V289.358C173.7 284.365 177.748 280.317 182.742 280.317V280.317C187.735 280.317 191.783 284.365 191.783 289.358V332.808C191.783 336.127 189.093 338.817 185.775 338.817L185.767 338.817Z" fill="#3592A2" stroke="black" stroke-width="6" stroke-linecap="round" stroke-linejoin="round"/>
<path d="M191.775 289.167V263.142C191.777 260.744 190.826 258.444 189.132 256.749C187.438 255.053 185.139 254.1 182.741 254.1V254.1C180.343 254.1 178.044 255.052 176.348 256.748C174.652 258.444 173.7 260.744 173.7 263.142V289.167" fill="#3592A2"/>
<path d="M191.775 289.167V263.142C191.777 260.744 190.826 258.444 189.132 256.749C187.438 255.053 185.139 254.1 182.741 254.1V254.1C180.343 254.1 178.044 255.052 176.348 256.748C174.652 258.444 173.7 260.744 173.7 263.142V289.167" stroke="black" stroke-width="6" stroke-linecap="round" stroke-linejoin="round"/>
<path d="M173.7 319.725V331.708C173.7 335.634 176.882 338.817 180.808 338.817H196.816C202.091 338.817 206.366 334.541 206.366 329.267V329.267C206.362 323.995 202.087 319.725 196.816 319.725H191.775" fill="#3592A2"/>
<path d="M173.7 319.725V331.708C173.7 335.634 176.882 338.817 180.808 338.817H196.816C202.091 338.817 206.366 334.541 206.366 329.267V329.267C206.362 323.995 202.087 319.725 196.816 319.725H191.775" stroke="black" stroke-width="6" stroke-linecap="round" stroke-linejoin="round"/>
<path d="M143.519 338.014L138.639 337.138C134.775 336.444 132.205 332.749 132.899 328.885L140.384 287.202C141.267 282.287 145.966 279.018 150.881 279.901V279.901C155.796 280.783 159.065 285.483 158.183 290.398L150.503 333.164C149.917 336.43 146.794 338.602 143.528 338.016L143.519 338.014Z" fill="#3592A2" stroke="black" stroke-width="6" stroke-linecap="round" stroke-linejoin="round"/>
<path d="M158.208 290.217L162.808 264.592C163.687 259.682 160.425 254.987 155.516 254.1V254.1C153.153 253.666 150.714 254.192 148.739 255.563C146.765 256.933 145.419 259.034 144.999 261.4L140.391 287.025" fill="#3592A2"/>
<path d="M158.208 290.217L162.808 264.592C163.687 259.682 160.425 254.987 155.516 254.1V254.1C153.153 253.666 150.714 254.192 148.739 255.563C146.765 256.933 145.419 259.034 144.999 261.4L140.391 287.025" stroke="black" stroke-width="6" stroke-linecap="round" stroke-linejoin="round"/>
<path d="M134.999 317.092L132.883 328.892C132.191 332.755 134.761 336.449 138.624 337.142L154.399 340C159.588 340.93 164.549 337.48 165.483 332.292V332.292C166.407 327.104 162.96 322.147 157.774 321.208L152.774 320.317" fill="#3592A2"/>
<path d="M134.999 317.092L132.883 328.892C132.191 332.755 134.761 336.449 138.624 337.142L154.399 340C159.588 340.93 164.549 337.48 165.483 332.292V332.292C166.407 327.104 162.96 322.147 157.774 321.208L152.774 320.317" stroke="black" stroke-width="6" stroke-linecap="round" stroke-linejoin="round"/>
<path d="M222.108 164.75C222.108 164.75 245.541 167.758 245.716 181.983C245.8 188.65 227.858 189.392 227.858 189.392" fill="#3592A2"/>
<path d="M222.108 164.75C222.108 164.75 245.541 167.758 245.716 181.983C245.8 188.65 227.858 189.392 227.858 189.392" stroke="black" stroke-width="6" stroke-linecap="round" stroke-linejoin="round"/>
<circle cx="166.333" cy="210.733" r="75.6667" fill="#3592A2" stroke="black" stroke-width="6" stroke-linecap="round" stroke-linejoin="round"/>
<path d="M184.825 202.683C191.925 209.908 183.559 214.35 174.225 210.892C166.325 217.042 153.875 217.808 159.5 206.992" stroke="black" stroke-width="6" stroke-linecap="round" stroke-linejoin="round"/>
<ellipse cx="190.795" cy="192.02" rx="5.375" ry="8.525" transform="rotate(-9.71 190.795 192.02)" fill="black"/>
<ellipse cx="151.045" cy="198.818" rx="5.375" ry="8.525" transform="rotate(-9.71 151.045 198.818)" fill="black"/>
<path d="M100.65 177.25C69.4413 190.067 76.8913 220.208 111.066 195.3Z" fill="#3592A2"/>
<path d="M100.65 177.25C69.4413 190.067 76.8913 220.208 111.066 195.3" stroke="black" stroke-width="6" stroke-linecap="round" stroke-linejoin="round"/>
<ellipse cx="205.824" cy="160.947" rx="6.375" ry="9.60833" transform="rotate(-53.49 205.824 160.947)" fill="#4B9EAC"/>
<path d="M106.583 233.408C106.583 233.408 84.1666 179.85 92.5416 168.333C97.4582 161.583 107.608 162.783 112.467 175.2C112.467 175.2 115.542 166.8 119.842 169.6C124.142 172.4 119.558 191.125 119.558 191.125C119.558 191.125 127.892 205.792 129.6 213.233" fill="#3592A2"/>
<path d="M106.583 233.408C106.583 233.408 84.1666 179.85 92.5416 168.333C97.4582 161.583 107.608 162.783 112.467 175.2C112.467 175.2 115.542 166.8 119.842 169.6C124.142 172.4 119.558 191.125 119.558 191.125C119.558 191.125 127.892 205.792 129.6 213.233" stroke="black" stroke-width="6" stroke-linecap="round" stroke-linejoin="round"/>
<path d="M275.433 108.9C283.625 99.8998 288.108 88.4415 287.041 76.3998C284.783 50.9498 258.708 32.4832 228.708 35.1415C198.708 37.7998 176.316 60.5748 178.575 86.0248C179.591 97.4832 185.458 107.525 194.333 114.866L189.858 125.658C188.641 128.591 191.658 131.491 194.341 130L207.241 122.7C225.913 130.469 247.183 128.769 264.383 118.133L277.141 123.133C278.026 123.478 279.032 123.259 279.693 122.576C280.354 121.894 280.54 120.881 280.166 120.008L275.433 108.9Z" fill="black"/>
<path d="M226.133 64.0167L231.366 96.8167C231.678 98.8197 230.323 100.701 228.325 101.042C226.266 101.35 223.75 100.117 223.391 98.1251L221.891 87.1084L215.225 87.1667L216.775 99.8584C217.029 101.175 216.548 102.525 215.518 103.385C214.489 104.244 213.074 104.476 211.825 103.99C210.575 103.505 209.688 102.379 209.508 101.05L204.091 67.1917C203.258 62.0334 211.725 60.9917 212.558 66.2751L214.225 79.2584L220.658 78.1001L218.825 65.2084C218.612 63.8999 219.113 62.5772 220.14 61.7387C221.167 60.9001 222.563 60.6729 223.802 61.1428C225.042 61.6127 225.937 62.7082 226.15 64.0167H226.133Z" fill="#FF79AB"/>
<path d="M242.099 73.5751L243.266 96.1417C243.372 97.4636 242.764 98.7415 241.672 99.494C240.58 100.246 239.17 100.359 237.972 99.7898C236.775 99.2204 235.972 98.0553 235.866 96.7334L234.166 74.5251C233.724 69.3084 241.733 69.4917 242.099 73.5751Z" fill="#FF79AB"/>
<path d="M233.408 65.7583L233.333 65.1666C233.199 63.1414 234.718 61.3847 236.741 61.2249C237.714 61.1325 238.683 61.4327 239.433 62.0588C240.182 62.685 240.651 63.5849 240.733 64.5583L240.791 65.1499C240.95 67.194 239.426 68.9818 237.383 69.1499C235.368 69.2543 233.622 67.765 233.408 65.7583V65.7583Z" fill="#FF79AB"/>
<path d="M252.116 85.8332L254.166 63.4915C254.24 62.5162 254.704 61.6121 255.454 60.9844C256.204 60.3567 257.176 60.0587 258.149 60.1582C259.12 60.2428 260.017 60.7105 260.643 61.4579C261.268 62.2053 261.571 63.1709 261.483 64.1415L259.458 86.5082C259.361 87.8388 258.553 89.0132 257.345 89.5785C256.136 90.1437 254.717 90.0114 253.634 89.2327C252.551 88.4539 251.973 87.1503 252.124 85.8249L252.116 85.8332Z" fill="#FF79AB"/>
<path d="M258.724 95L258.591 96.6667C258.469 97.9782 257.656 99.1249 256.46 99.6749C255.263 100.225 253.864 100.095 252.789 99.3332C251.714 98.5718 251.127 97.2948 251.249 95.9834L251.391 94.3834C251.448 93.031 252.242 91.819 253.459 91.2267C254.677 90.6345 256.12 90.7576 257.22 91.5472C258.319 92.3369 258.897 93.6659 258.724 95.0084V95Z" fill="#FF79AB"/>
</svg>
